<?xml version="1.0" encoding="utf-8" standalone="no"?>
<!DOCTYPE svg PUBLIC "-//W3C//DTD SVG 1.1//EN"
  "http://www.w3.org/Graphics/SVG/1.1/DTD/svg11.dtd">
<!-- Created with matplotlib (https://matplotlib.org/) -->
<svg height="72pt" version="1.1" viewBox="0 0 720 72" width="720pt" xmlns="http://www.w3.org/2000/svg" xmlns:xlink="http://www.w3.org/1999/xlink">
 <metadata>
  <rdf:RDF xmlns:cc="http://creativecommons.org/ns#" xmlns:dc="http://purl.org/dc/elements/1.1/" xmlns:rdf="http://www.w3.org/1999/02/22-rdf-syntax-ns#">
   <cc:Work>
    <dc:type rdf:resource="http://purl.org/dc/dcmitype/StillImage"/>
    <dc:date>2021-02-08T13:15:42.709962</dc:date>
    <dc:format>image/svg+xml</dc:format>
    <dc:creator>
     <cc:Agent>
      <dc:title>Matplotlib v3.3.3, https://matplotlib.org/</dc:title>
     </cc:Agent>
    </dc:creator>
   </cc:Work>
  </rdf:RDF>
 </metadata>
 <defs>
  <style type="text/css">*{stroke-linecap:butt;stroke-linejoin:round;}</style>
 </defs>
 <g id="figure_1">
  <g id="patch_1">
   <path d="M 0 72 
L 720 72 
L 720 0 
L 0 0 
z
" style="fill:#ffffff;"/>
  </g>
  <g id="axes_1">
   <g id="patch_2">
    <path d="M 90 57.6 
L 648 57.6 
L 648 8.64 
L 90 8.64 
z
" style="fill:#ffffff;"/>
   </g>
   <g id="matplotlib.axis_1">
    <g id="xtick_1">
     <g id="line2d_1">
      <defs>
       <path d="M 0 0 
L 0 3.5 
" id="mee43c0adf2" style="stroke:#000000;stroke-width:0.8;"/>
      </defs>
      <g>
       <use style="stroke:#000000;stroke-width:0.8;" x="99.11874" xlink:href="#mee43c0adf2" y="57.6"/>
      </g>
     </g>
     <g id="text_1">
      <!-- 2018-02 -->
      <g transform="translate(57.335927 72.198437)scale(0.1 -0.1)">
       <defs>
        <path d="M 19.1875 8.296875 
L 53.609375 8.296875 
L 53.609375 0 
L 7.328125 0 
L 7.328125 8.296875 
Q 12.9375 14.109375 22.625 23.890625 
Q 32.328125 33.6875 34.8125 36.53125 
Q 39.546875 41.84375 41.421875 45.53125 
Q 43.3125 49.21875 43.3125 52.78125 
Q 43.3125 58.59375 39.234375 62.25 
Q 35.15625 65.921875 28.609375 65.921875 
Q 23.96875 65.921875 18.8125 64.3125 
Q 13.671875 62.703125 7.8125 59.421875 
L 7.8125 69.390625 
Q 13.765625 71.78125 18.9375 73 
Q 24.125 74.21875 28.421875 74.21875 
Q 39.75 74.21875 46.484375 68.546875 
Q 53.21875 62.890625 53.21875 53.421875 
Q 53.21875 48.921875 51.53125 44.890625 
Q 49.859375 40.875 45.40625 35.40625 
Q 44.1875 33.984375 37.640625 27.21875 
Q 31.109375 20.453125 19.1875 8.296875 
z
" id="DejaVuSans-50"/>
        <path d="M 31.78125 66.40625 
Q 24.171875 66.40625 20.328125 58.90625 
Q 16.5 51.421875 16.5 36.375 
Q 16.5 21.390625 20.328125 13.890625 
Q 24.171875 6.390625 31.78125 6.390625 
Q 39.453125 6.390625 43.28125 13.890625 
Q 47.125 21.390625 47.125 36.375 
Q 47.125 51.421875 43.28125 58.90625 
Q 39.453125 66.40625 31.78125 66.40625 
z
M 31.78125 74.21875 
Q 44.046875 74.21875 50.515625 64.515625 
Q 56.984375 54.828125 56.984375 36.375 
Q 56.984375 17.96875 50.515625 8.265625 
Q 44.046875 -1.421875 31.78125 -1.421875 
Q 19.53125 -1.421875 13.0625 8.265625 
Q 6.59375 17.96875 6.59375 36.375 
Q 6.59375 54.828125 13.0625 64.515625 
Q 19.53125 74.21875 31.78125 74.21875 
z
" id="DejaVuSans-48"/>
        <path d="M 12.40625 8.296875 
L 28.515625 8.296875 
L 28.515625 63.921875 
L 10.984375 60.40625 
L 10.984375 69.390625 
L 28.421875 72.90625 
L 38.28125 72.90625 
L 38.28125 8.296875 
L 54.390625 8.296875 
L 54.390625 0 
L 12.40625 0 
z
" id="DejaVuSans-49"/>
        <path d="M 31.78125 34.625 
Q 24.75 34.625 20.71875 30.859375 
Q 16.703125 27.09375 16.703125 20.515625 
Q 16.703125 13.921875 20.71875 10.15625 
Q 24.75 6.390625 31.78125 6.390625 
Q 38.8125 6.390625 42.859375 10.171875 
Q 46.921875 13.96875 46.921875 20.515625 
Q 46.921875 27.09375 42.890625 30.859375 
Q 38.875 34.625 31.78125 34.625 
z
M 21.921875 38.8125 
Q 15.578125 40.375 12.03125 44.71875 
Q 8.5 49.078125 8.5 55.328125 
Q 8.5 64.0625 14.71875 69.140625 
Q 20.953125 74.21875 31.78125 74.21875 
Q 42.671875 74.21875 48.875 69.140625 
Q 55.078125 64.0625 55.078125 55.328125 
Q 55.078125 49.078125 51.53125 44.71875 
Q 48 40.375 41.703125 38.8125 
Q 48.828125 37.15625 52.796875 32.3125 
Q 56.78125 27.484375 56.78125 20.515625 
Q 56.78125 9.90625 50.3125 4.234375 
Q 43.84375 -1.421875 31.78125 -1.421875 
Q 19.734375 -1.421875 13.25 4.234375 
Q 6.78125 9.90625 6.78125 20.515625 
Q 6.78125 27.484375 10.78125 32.3125 
Q 14.796875 37.15625 21.921875 38.8125 
z
M 18.3125 54.390625 
Q 18.3125 48.734375 21.84375 45.5625 
Q 25.390625 42.390625 31.78125 42.390625 
Q 38.140625 42.390625 41.71875 45.5625 
Q 45.3125 48.734375 45.3125 54.390625 
Q 45.3125 60.0625 41.71875 63.234375 
Q 38.140625 66.40625 31.78125 66.40625 
Q 25.390625 66.40625 21.84375 63.234375 
Q 18.3125 60.0625 18.3125 54.390625 
z
" id="DejaVuSans-56"/>
        <path d="M 4.890625 31.390625 
L 31.203125 31.390625 
L 31.203125 23.390625 
L 4.890625 23.390625 
z
" id="DejaVuSans-45"/>
       </defs>
       <use xlink:href="#DejaVuSans-50"/>
       <use x="63.623047" xlink:href="#DejaVuSans-48"/>
       <use x="127.246094" xlink:href="#DejaVuSans-49"/>
       <use x="190.869141" xlink:href="#DejaVuSans-56"/>
       <use x="254.492188" xlink:href="#DejaVuSans-45"/>
       <use x="290.576172" xlink:href="#DejaVuSans-48"/>
       <use x="354.199219" xlink:href="#DejaVuSans-50"/>
      </g>
     </g>
    </g>
    <g id="xtick_2">
     <g id="line2d_2">
      <g>
       <use style="stroke:#000000;stroke-width:0.8;" x="174.840617" xlink:href="#mee43c0adf2" y="57.6"/>
      </g>
     </g>
     <g id="text_2">
      <!-- 2018-03 -->
      <g transform="translate(133.057805 72.198437)scale(0.1 -0.1)">
       <defs>
        <path d="M 40.578125 39.3125 
Q 47.65625 37.796875 51.625 33 
Q 55.609375 28.21875 55.609375 21.1875 
Q 55.609375 10.40625 48.1875 4.484375 
Q 40.765625 -1.421875 27.09375 -1.421875 
Q 22.515625 -1.421875 17.65625 -0.515625 
Q 12.796875 0.390625 7.625 2.203125 
L 7.625 11.71875 
Q 11.71875 9.328125 16.59375 8.109375 
Q 21.484375 6.890625 26.8125 6.890625 
Q 36.078125 6.890625 40.9375 10.546875 
Q 45.796875 14.203125 45.796875 21.1875 
Q 45.796875 27.640625 41.28125 31.265625 
Q 36.765625 34.90625 28.71875 34.90625 
L 20.21875 34.90625 
L 20.21875 43.015625 
L 29.109375 43.015625 
Q 36.375 43.015625 40.234375 45.921875 
Q 44.09375 48.828125 44.09375 54.296875 
Q 44.09375 59.90625 40.109375 62.90625 
Q 36.140625 65.921875 28.71875 65.921875 
Q 24.65625 65.921875 20.015625 65.03125 
Q 15.375 64.15625 9.8125 62.3125 
L 9.8125 71.09375 
Q 15.4375 72.65625 20.34375 73.4375 
Q 25.25 74.21875 29.59375 74.21875 
Q 40.828125 74.21875 47.359375 69.109375 
Q 53.90625 64.015625 53.90625 55.328125 
Q 53.90625 49.265625 50.4375 45.09375 
Q 46.96875 40.921875 40.578125 39.3125 
z
" id="DejaVuSans-51"/>
       </defs>
       <use xlink:href="#DejaVuSans-50"/>
       <use x="63.623047" xlink:href="#DejaVuSans-48"/>
       <use x="127.246094" xlink:href="#DejaVuSans-49"/>
       <use x="190.869141" xlink:href="#DejaVuSans-56"/>
       <use x="254.492188" xlink:href="#DejaVuSans-45"/>
       <use x="290.576172" xlink:href="#DejaVuSans-48"/>
       <use x="354.199219" xlink:href="#DejaVuSans-51"/>
      </g>
     </g>
    </g>
    <g id="xtick_3">
     <g id="line2d_3">
      <g>
       <use style="stroke:#000000;stroke-width:0.8;" x="258.675553" xlink:href="#mee43c0adf2" y="57.6"/>
      </g>
     </g>
     <g id="text_3">
      <!-- 2018-04 -->
      <g transform="translate(216.892741 72.198437)scale(0.1 -0.1)">
       <defs>
        <path d="M 37.796875 64.3125 
L 12.890625 25.390625 
L 37.796875 25.390625 
z
M 35.203125 72.90625 
L 47.609375 72.90625 
L 47.609375 25.390625 
L 58.015625 25.390625 
L 58.015625 17.1875 
L 47.609375 17.1875 
L 47.609375 0 
L 37.796875 0 
L 37.796875 17.1875 
L 4.890625 17.1875 
L 4.890625 26.703125 
z
" id="DejaVuSans-52"/>
       </defs>
       <use xlink:href="#DejaVuSans-50"/>
       <use x="63.623047" xlink:href="#DejaVuSans-48"/>
       <use x="127.246094" xlink:href="#DejaVuSans-49"/>
       <use x="190.869141" xlink:href="#DejaVuSans-56"/>
       <use x="254.492188" xlink:href="#DejaVuSans-45"/>
       <use x="290.576172" xlink:href="#DejaVuSans-48"/>
       <use x="354.199219" xlink:href="#DejaVuSans-52"/>
      </g>
     </g>
    </g>
    <g id="xtick_4">
     <g id="line2d_4">
      <g>
       <use style="stroke:#000000;stroke-width:0.8;" x="339.806136" xlink:href="#mee43c0adf2" y="57.6"/>
      </g>
     </g>
     <g id="text_4">
      <!-- 2018-05 -->
      <g transform="translate(298.023324 72.198437)scale(0.1 -0.1)">
       <defs>
        <path d="M 10.796875 72.90625 
L 49.515625 72.90625 
L 49.515625 64.59375 
L 19.828125 64.59375 
L 19.828125 46.734375 
Q 21.96875 47.46875 24.109375 47.828125 
Q 26.265625 48.1875 28.421875 48.1875 
Q 40.625 48.1875 47.75 41.5 
Q 54.890625 34.8125 54.890625 23.390625 
Q 54.890625 11.625 47.5625 5.09375 
Q 40.234375 -1.421875 26.90625 -1.421875 
Q 22.3125 -1.421875 17.546875 -0.640625 
Q 12.796875 0.140625 7.71875 1.703125 
L 7.71875 11.625 
Q 12.109375 9.234375 16.796875 8.0625 
Q 21.484375 6.890625 26.703125 6.890625 
Q 35.15625 6.890625 40.078125 11.328125 
Q 45.015625 15.765625 45.015625 23.390625 
Q 45.015625 31 40.078125 35.4375 
Q 35.15625 39.890625 26.703125 39.890625 
Q 22.75 39.890625 18.8125 39.015625 
Q 14.890625 38.140625 10.796875 36.28125 
z
" id="DejaVuSans-53"/>
       </defs>
       <use xlink:href="#DejaVuSans-50"/>
       <use x="63.623047" xlink:href="#DejaVuSans-48"/>
       <use x="127.246094" xlink:href="#DejaVuSans-49"/>
       <use x="190.869141" xlink:href="#DejaVuSans-56"/>
       <use x="254.492188" xlink:href="#DejaVuSans-45"/>
       <use x="290.576172" xlink:href="#DejaVuSans-48"/>
       <use x="354.199219" xlink:href="#DejaVuSans-53"/>
      </g>
     </g>
    </g>
    <g id="xtick_5">
     <g id="line2d_5">
      <g>
       <use style="stroke:#000000;stroke-width:0.8;" x="423.641072" xlink:href="#mee43c0adf2" y="57.6"/>
      </g>
     </g>
     <g id="text_5">
      <!-- 2018-06 -->
      <g transform="translate(381.85826 72.198437)scale(0.1 -0.1)">
       <defs>
        <path d="M 33.015625 40.375 
Q 26.375 40.375 22.484375 35.828125 
Q 18.609375 31.296875 18.609375 23.390625 
Q 18.609375 15.53125 22.484375 10.953125 
Q 26.375 6.390625 33.015625 6.390625 
Q 39.65625 6.390625 43.53125 10.953125 
Q 47.40625 15.53125 47.40625 23.390625 
Q 47.40625 31.296875 43.53125 35.828125 
Q 39.65625 40.375 33.015625 40.375 
z
M 52.59375 71.296875 
L 52.59375 62.3125 
Q 48.875 64.0625 45.09375 64.984375 
Q 41.3125 65.921875 37.59375 65.921875 
Q 27.828125 65.921875 22.671875 59.328125 
Q 17.53125 52.734375 16.796875 39.40625 
Q 19.671875 43.65625 24.015625 45.921875 
Q 28.375 48.1875 33.59375 48.1875 
Q 44.578125 48.1875 50.953125 41.515625 
Q 57.328125 34.859375 57.328125 23.390625 
Q 57.328125 12.15625 50.6875 5.359375 
Q 44.046875 -1.421875 33.015625 -1.421875 
Q 20.359375 -1.421875 13.671875 8.265625 
Q 6.984375 17.96875 6.984375 36.375 
Q 6.984375 53.65625 15.1875 63.9375 
Q 23.390625 74.21875 37.203125 74.21875 
Q 40.921875 74.21875 44.703125 73.484375 
Q 48.484375 72.75 52.59375 71.296875 
z
" id="DejaVuSans-54"/>
       </defs>
       <use xlink:href="#DejaVuSans-50"/>
       <use x="63.623047" xlink:href="#DejaVuSans-48"/>
       <use x="127.246094" xlink:href="#DejaVuSans-49"/>
       <use x="190.869141" xlink:href="#DejaVuSans-56"/>
       <use x="254.492188" xlink:href="#DejaVuSans-45"/>
       <use x="290.576172" xlink:href="#DejaVuSans-48"/>
       <use x="354.199219" xlink:href="#DejaVuSans-54"/>
      </g>
     </g>
    </g>
    <g id="xtick_6">
     <g id="line2d_6">
      <g>
       <use style="stroke:#000000;stroke-width:0.8;" x="504.771655" xlink:href="#mee43c0adf2" y="57.6"/>
      </g>
     </g>
     <g id="text_6">
      <!-- 2018-07 -->
      <g transform="translate(462.988843 72.198437)scale(0.1 -0.1)">
       <defs>
        <path d="M 8.203125 72.90625 
L 55.078125 72.90625 
L 55.078125 68.703125 
L 28.609375 0 
L 18.3125 0 
L 43.21875 64.59375 
L 8.203125 64.59375 
z
" id="DejaVuSans-55"/>
       </defs>
       <use xlink:href="#DejaVuSans-50"/>
       <use x="63.623047" xlink:href="#DejaVuSans-48"/>
       <use x="127.246094" xlink:href="#DejaVuSans-49"/>
       <use x="190.869141" xlink:href="#DejaVuSans-56"/>
       <use x="254.492188" xlink:href="#DejaVuSans-45"/>
       <use x="290.576172" xlink:href="#DejaVuSans-48"/>
       <use x="354.199219" xlink:href="#DejaVuSans-55"/>
      </g>
     </g>
    </g>
    <g id="xtick_7">
     <g id="line2d_7">
      <g>
       <use style="stroke:#000000;stroke-width:0.8;" x="588.606591" xlink:href="#mee43c0adf2" y="57.6"/>
      </g>
     </g>
     <g id="text_7">
      <!-- 2018-08 -->
      <g transform="translate(546.823779 72.198437)scale(0.1 -0.1)">
       <use xlink:href="#DejaVuSans-50"/>
       <use x="63.623047" xlink:href="#DejaVuSans-48"/>
       <use x="127.246094" xlink:href="#DejaVuSans-49"/>
       <use x="190.869141" xlink:href="#DejaVuSans-56"/>
       <use x="254.492188" xlink:href="#DejaVuSans-45"/>
       <use x="290.576172" xlink:href="#DejaVuSans-48"/>
       <use x="354.199219" xlink:href="#DejaVuSans-56"/>
      </g>
     </g>
    </g>
    <g id="text_8">
     <!-- Date_Time -->
     <g transform="translate(342.315625 85.876562)scale(0.1 -0.1)">
      <defs>
       <path d="M 19.671875 64.796875 
L 19.671875 8.109375 
L 31.59375 8.109375 
Q 46.6875 8.109375 53.6875 14.9375 
Q 60.6875 21.78125 60.6875 36.53125 
Q 60.6875 51.171875 53.6875 57.984375 
Q 46.6875 64.796875 31.59375 64.796875 
z
M 9.8125 72.90625 
L 30.078125 72.90625 
Q 51.265625 72.90625 61.171875 64.09375 
Q 71.09375 55.28125 71.09375 36.53125 
Q 71.09375 17.671875 61.125 8.828125 
Q 51.171875 0 30.078125 0 
L 9.8125 0 
z
" id="DejaVuSans-68"/>
       <path d="M 34.28125 27.484375 
Q 23.390625 27.484375 19.1875 25 
Q 14.984375 22.515625 14.984375 16.5 
Q 14.984375 11.71875 18.140625 8.90625 
Q 21.296875 6.109375 26.703125 6.109375 
Q 34.1875 6.109375 38.703125 11.40625 
Q 43.21875 16.703125 43.21875 25.484375 
L 43.21875 27.484375 
z
M 52.203125 31.203125 
L 52.203125 0 
L 43.21875 0 
L 43.21875 8.296875 
Q 40.140625 3.328125 35.546875 0.953125 
Q 30.953125 -1.421875 24.3125 -1.421875 
Q 15.921875 -1.421875 10.953125 3.296875 
Q 6 8.015625 6 15.921875 
Q 6 25.140625 12.171875 29.828125 
Q 18.359375 34.515625 30.609375 34.515625 
L 43.21875 34.515625 
L 43.21875 35.40625 
Q 43.21875 41.609375 39.140625 45 
Q 35.0625 48.390625 27.6875 48.390625 
Q 23 48.390625 18.546875 47.265625 
Q 14.109375 46.140625 10.015625 43.890625 
L 10.015625 52.203125 
Q 14.9375 54.109375 19.578125 55.046875 
Q 24.21875 56 28.609375 56 
Q 40.484375 56 46.34375 49.84375 
Q 52.203125 43.703125 52.203125 31.203125 
z
" id="DejaVuSans-97"/>
       <path d="M 18.3125 70.21875 
L 18.3125 54.6875 
L 36.8125 54.6875 
L 36.8125 47.703125 
L 18.3125 47.703125 
L 18.3125 18.015625 
Q 18.3125 11.328125 20.140625 9.421875 
Q 21.96875 7.515625 27.59375 7.515625 
L 36.8125 7.515625 
L 36.8125 0 
L 27.59375 0 
Q 17.1875 0 13.234375 3.875 
Q 9.28125 7.765625 9.28125 18.015625 
L 9.28125 47.703125 
L 2.6875 47.703125 
L 2.6875 54.6875 
L 9.28125 54.6875 
L 9.28125 70.21875 
z
" id="DejaVuSans-116"/>
       <path d="M 56.203125 29.59375 
L 56.203125 25.203125 
L 14.890625 25.203125 
Q 15.484375 15.921875 20.484375 11.0625 
Q 25.484375 6.203125 34.421875 6.203125 
Q 39.59375 6.203125 44.453125 7.46875 
Q 49.3125 8.734375 54.109375 11.28125 
L 54.109375 2.78125 
Q 49.265625 0.734375 44.1875 -0.34375 
Q 39.109375 -1.421875 33.890625 -1.421875 
Q 20.796875 -1.421875 13.15625 6.1875 
Q 5.515625 13.8125 5.515625 26.8125 
Q 5.515625 40.234375 12.765625 48.109375 
Q 20.015625 56 32.328125 56 
Q 43.359375 56 49.78125 48.890625 
Q 56.203125 41.796875 56.203125 29.59375 
z
M 47.21875 32.234375 
Q 47.125 39.59375 43.09375 43.984375 
Q 39.0625 48.390625 32.421875 48.390625 
Q 24.90625 48.390625 20.390625 44.140625 
Q 15.875 39.890625 15.1875 32.171875 
z
" id="DejaVuSans-101"/>
       <path d="M 50.984375 -16.609375 
L 50.984375 -23.578125 
L -0.984375 -23.578125 
L -0.984375 -16.609375 
z
" id="DejaVuSans-95"/>
       <path d="M -0.296875 72.90625 
L 61.375 72.90625 
L 61.375 64.59375 
L 35.5 64.59375 
L 35.5 0 
L 25.59375 0 
L 25.59375 64.59375 
L -0.296875 64.59375 
z
" id="DejaVuSans-84"/>
       <path d="M 9.421875 54.6875 
L 18.40625 54.6875 
L 18.40625 0 
L 9.421875 0 
z
M 9.421875 75.984375 
L 18.40625 75.984375 
L 18.40625 64.59375 
L 9.421875 64.59375 
z
" id="DejaVuSans-105"/>
       <path d="M 52 44.1875 
Q 55.375 50.25 60.0625 53.125 
Q 64.75 56 71.09375 56 
Q 79.640625 56 84.28125 50.015625 
Q 88.921875 44.046875 88.921875 33.015625 
L 88.921875 0 
L 79.890625 0 
L 79.890625 32.71875 
Q 79.890625 40.578125 77.09375 44.375 
Q 74.3125 48.1875 68.609375 48.1875 
Q 61.625 48.1875 57.5625 43.546875 
Q 53.515625 38.921875 53.515625 30.90625 
L 53.515625 0 
L 44.484375 0 
L 44.484375 32.71875 
Q 44.484375 40.625 41.703125 44.40625 
Q 38.921875 48.1875 33.109375 48.1875 
Q 26.21875 48.1875 22.15625 43.53125 
Q 18.109375 38.875 18.109375 30.90625 
L 18.109375 0 
L 9.078125 0 
L 9.078125 54.6875 
L 18.109375 54.6875 
L 18.109375 46.1875 
Q 21.1875 51.21875 25.484375 53.609375 
Q 29.78125 56 35.6875 56 
Q 41.65625 56 45.828125 52.96875 
Q 50 49.953125 52 44.1875 
z
" id="DejaVuSans-109"/>
      </defs>
      <use xlink:href="#DejaVuSans-68"/>
      <use x="77.001953" xlink:href="#DejaVuSans-97"/>
      <use x="138.28125" xlink:href="#DejaVuSans-116"/>
      <use x="177.490234" xlink:href="#DejaVuSans-101"/>
      <use x="239.013672" xlink:href="#DejaVuSans-95"/>
      <use x="289.013672" xlink:href="#DejaVuSans-84"/>
      <use x="346.972656" xlink:href="#DejaVuSans-105"/>
      <use x="374.755859" xlink:href="#DejaVuSans-109"/>
      <use x="472.167969" xlink:href="#DejaVuSans-101"/>
     </g>
    </g>
   </g>
   <g id="matplotlib.axis_2">
    <g id="ytick_1">
     <g id="line2d_8">
      <defs>
       <path d="M 0 0 
L -3.5 0 
" id="m67e4368a99" style="stroke:#000000;stroke-width:0.8;"/>
      </defs>
      <g>
       <use style="stroke:#000000;stroke-width:0.8;" x="90" xlink:href="#m67e4368a99" y="40.995165"/>
      </g>
     </g>
     <g id="text_9">
      <!-- 0 -->
      <g transform="translate(76.6375 44.794383)scale(0.1 -0.1)">
       <use xlink:href="#DejaVuSans-48"/>
      </g>
     </g>
    </g>
    <g id="ytick_2">
     <g id="line2d_9">
      <g>
       <use style="stroke:#000000;stroke-width:0.8;" x="90" xlink:href="#m67e4368a99" y="9.837243"/>
      </g>
     </g>
     <g id="text_10">
      <!-- 2000 -->
      <g transform="translate(57.55 13.636462)scale(0.1 -0.1)">
       <use xlink:href="#DejaVuSans-50"/>
       <use x="63.623047" xlink:href="#DejaVuSans-48"/>
       <use x="127.246094" xlink:href="#DejaVuSans-48"/>
       <use x="190.869141" xlink:href="#DejaVuSans-48"/>
      </g>
     </g>
    </g>
   </g>
   <g id="line2d_10">
    <path clip-path="url(#p229e0fbb06)" d="M 115.363636 43.550114 
L 115.523268 44.110957 
L 115.579609 44.188852 
L 115.64534 44.142115 
L 115.758021 44.765273 
L 115.795582 44.936642 
L 115.861312 44.734115 
L 115.936433 44.157694 
L 116.011554 44.204431 
L 116.208747 42.303797 
L 116.687642 30.183366 
L 116.762763 10.865455 
L 116.837884 15.990933 
L 116.847274 15.944196 
L 116.866055 18.140829 
L 116.941175 14.697879 
L 116.950566 16.006512 
L 117.025687 13.872194 
L 116.997516 18.623777 
L 117.053857 16.972407 
L 117.072637 16.598512 
L 117.091417 18.592619 
L 117.401291 38.409057 
L 117.420071 38.175373 
L 117.504582 37.427583 
L 117.467022 38.284425 
L 117.523363 38.06632 
L 117.701775 41.680639 
L 117.767505 43.378746 
L 117.776896 41.020403 
L 117.880187 41.035514 
L 118.077379 41.035826 
L 118.199451 45.933695 
L 118.274572 45.170326 
L 118.321522 45.279379 
L 118.330912 45.450747 
L 118.349693 44.998958 
L 118.406033 45.232642 
L 118.424813 44.889905 
L 118.481154 46.073906 
L 118.499934 47.164433 
L 118.528105 45.544221 
L 118.575055 45.871379 
L 118.584445 45.466326 
L 118.603226 46.790538 
L 118.668956 46.385485 
L 118.697127 46.650327 
L 118.725297 46.089485 
L 118.791028 45.232642 
L 118.98822 40.185059 
L 118.99761 41.478112 
L 119.082121 42.054534 
L 119.044561 40.932849 
L 119.100902 41.66506 
L 119.335654 37.240635 
L 119.354435 38.81411 
L 119.429556 39.188005 
L 119.373215 38.284425 
L 119.438946 39.078952 
L 119.457726 37.427583 
L 119.532847 39.873479 
L 119.551627 40.839375 
L 119.617358 39.172426 
L 119.626748 39.920216 
L 119.701869 37.77032 
L 119.720649 41.057481 
L 119.730039 40.745901 
L 119.80516 41.883165 
L 119.899061 43.783799 
L 119.82394 41.867586 
L 119.917842 43.113903 
L 119.992962 43.659167 
L 119.974182 42.817903 
L 120.011743 43.378746 
L 120.030523 42.428429 
L 120.096254 44.266746 
L 120.105644 44.110957 
L 120.115034 43.970746 
L 120.161985 44.609484 
L 120.171375 44.51601 
L 120.255886 45.871379 
L 120.312226 45.700011 
L 120.331007 44.827589 
L 120.415518 45.933695 
L 120.61271 55.374545 
L 120.716001 53.847807 
L 120.838073 51.838121 
L 120.744172 54.11265 
L 120.847463 51.947174 
L 120.894413 51.152647 
L 120.922584 51.838121 
L 120.941364 52.772859 
L 120.988315 51.183805 
L 121.035265 52.196437 
L 121.091606 54.034755 
L 121.176117 52.648227 
L 121.185507 52.710543 
L 121.194897 52.445701 
L 121.279408 52.679385 
L 121.363919 49.76612 
L 121.373309 49.812856 
L 121.392089 49.45454 
L 121.561111 45.637695 
L 121.570502 46.852854 
L 121.579892 48.473066 
L 121.655013 43.581272 
L 121.673793 41.867586 
L 121.730134 44.827589 
L 121.777084 42.350534 
L 121.814645 42.693271 
L 121.917936 41.774113 
L 121.946106 41.696218 
L 122.162079 38.829689 
L 122.190249 39.374953 
L 122.25598 40.091585 
L 122.27476 39.328216 
L 122.28415 39.343795 
L 122.415612 37.645688 
L 122.443782 37.723583 
L 122.471953 38.004004 
L 122.500123 36.960214 
L 122.518903 35.854108 
L 122.528293 40.943131 
L 122.565854 40.905897 
L 123.06353 41.075241 
L 123.598766 41.195043 
L 124.058882 41.154849 
L 124.209124 41.02383 
L 124.396926 40.962916 
L 124.547168 40.853552 
L 124.565948 40.873493 
L 124.922772 40.948895 
L 125.335937 40.953257 
L 125.53313 41.043615 
L 126.744454 41.114188 
L 127.073108 40.986596 
L 127.120059 40.771918 
L 127.20457 40.91836 
L 127.336031 40.93316 
L 127.721026 40.801518 
L 127.730416 40.826912 
L 128.228092 41.039253 
L 128.84784 41.069476 
L 129.777461 41.095026 
L 129.786851 51.028015 
L 129.890142 50.311383 
L 129.899533 50.295804 
L 129.908923 50.326962 
L 129.984044 48.815803 
L 130.012214 50.576226 
L 130.040384 49.423382 
L 130.124895 49.734962 
L 130.087335 49.361067 
L 130.153066 49.485698 
L 130.293917 49.127382 
L 130.378428 48.161487 
L 130.387818 49.002751 
L 130.406599 50.015383 
L 130.48172 48.550961 
L 130.566231 45.731169 
L 130.707082 46.323169 
L 130.810374 46.884012 
L 130.819764 46.821696 
L 130.847934 46.603591 
L 130.904275 46.837275 
L 130.932445 46.728222 
L 131.139028 47.413697 
L 131.167198 47.36696 
L 131.279879 46.993065 
L 131.815116 44.858747 
L 131.833896 44.796431 
L 132.040478 43.830536 
L 132.059259 43.737062 
L 132.247061 42.817903 
L 132.256451 42.833482 
L 132.294012 42.740008 
L 132.387913 42.179166 
L 132.444253 42.506324 
L 132.491204 42.70885 
L 132.519374 42.521903 
L 132.744737 41.008718 
L 137.993811 40.95388 
L 138.078322 40.870533 
L 138.106492 40.88619 
L 138.538437 41.007005 
L 138.73563 41.009965 
L 139.721592 41.111072 
L 140.003295 41.113876 
L 140.538531 40.996255 
L 140.594872 41.009497 
L 140.660603 40.908701 
L 140.688773 40.968057 
L 140.726334 40.987219 
L 140.763894 41.054832 
L 140.801455 40.877388 
L 140.829625 40.857291 
L 140.876576 40.952946 
L 141.036207 41.022116 
L 141.317911 40.933939 
L 141.346081 40.994853 
L 142.247532 41.235704 
L 143.120813 41.111072 
L 143.242884 41.09487 
L 143.271055 41.11559 
L 143.318005 41.026634 
L 143.496417 40.880504 
L 143.515198 40.980209 
L 143.618489 40.923969 
L 143.71239 40.930512 
L 143.73117 40.962293 
L 143.806291 40.985817 
L 143.843851 40.941573 
L 144.012874 40.949207 
L 145.646753 41.246142 
L 145.806385 41.122289 
L 146.257111 41.011523 
L 146.491864 41.066828 
L 146.858078 41.023363 
L 146.923809 41.088015 
L 146.970759 41.023363 
L 147.581117 41.159523 
L 151.863009 41.054365 
L 152.00386 41.032398 
L 152.172882 41.028348 
L 153.797372 41.257514 
L 154.4359 41.04268 
L 154.567361 41.092222 
L 155.036867 41.020714 
L 155.26223 41.06231 
L 155.562714 41.159055 
L 155.938318 41.15111 
L 156.539285 41.150643 
L 156.717698 41.076954 
L 157.205983 41.046108 
L 158.060484 41.090975 
L 160.107529 40.87879 
L 160.20143 40.784849 
L 160.22021 40.840154 
L 160.426792 41.023674 
L 162.032502 41.261098 
L 162.220304 41.176971 
L 162.548958 41.052963 
L 162.652249 41.038163 
L 162.67103 41.050003 
L 163.065414 41.099544 
L 163.431629 41.209843 
L 164.126497 41.34351 
L 164.426981 41.347872 
L 164.783805 41.231809 
L 165.056119 41.109358 
L 165.290871 41.089885 
L 165.431723 41.070723 
L 165.563185 41.078201 
L 165.666476 41.040032 
L 165.675866 41.04455 
L 165.797938 41.041902 
L 166.070251 41.154849 
L 166.380125 41.209843 
L 166.577317 41.208752 
L 166.680608 41.200495 
L 166.699388 41.21623 
L 166.915361 41.265304 
L 167.103163 41.302382 
L 168.568021 41.12338 
L 169.33801 41.178685 
L 170.070439 41.156718 
L 172.230165 41.159834 
L 173.281858 41.138958 
L 177.854844 41.16186 
L 178.41825 41.146592 
L 178.662393 41.057325 
L 178.803245 41.078356 
L 179.18824 41.059973 
L 179.366652 41.071657 
L 180.455905 41.153135 
L 180.606147 41.123847 
L 180.775169 41.092066 
L 184.794138 41.134752 
L 184.99133 41.189902 
L 185.273034 41.310171 
L 186.465578 41.32466 
L 186.747281 41.082563 
L 186.775452 41.127274 
L 186.906913 41.046419 
L 187.028985 40.963228 
L 187.057155 40.981299 
L 187.902265 41.228693 
L 188.925788 41.134441 
L 189.235662 41.12151 
L 189.489195 41.114188 
L 189.855409 41.101569 
L 190.052601 41.09783 
L 190.212233 41.112007 
L 190.653569 41.134752 
L 191.357827 41.116681 
L 194.832169 41.054521 
L 196.353368 41.094403 
L 202.841936 41.199249 
L 202.964008 41.182112 
L 203.15181 41.174946 
L 203.395953 41.154849 
L 203.771558 41.244895 
L 204.259844 41.342575 
L 204.78569 41.350988 
L 205.921894 41.089729 
L 207.358581 41.176815 
L 207.771746 41.167001 
L 208.92673 41.142542 
L 209.358675 41.264992 
L 209.659159 41.310794 
L 209.809401 41.316559 
L 209.818791 41.296929 
L 209.940862 41.307055 
L 210.748412 41.373266 
L 210.898654 41.345068 
L 211.161577 41.26063 
L 212.401072 41.286491 
L 212.654605 41.291788 
L 213.03021 41.294592 
L 215.405909 41.24583 
L 215.941145 41.269978 
L 216.532722 41.158121 
L 216.673574 41.154226 
L 216.917717 41.105308 
L 217.114909 41.150798 
L 218.01636 41.221371 
L 218.241723 41.179152 
L 218.945982 41.162171 
L 220.410839 41.102036 
L 221.030587 41.071502 
L 228.392436 41.181956 
L 228.927673 41.168559 
L 229.50986 41.14706 
L 230.242288 41.146281 
L 230.608503 41.114032 
L 232.392625 41.076331 
L 232.542866 41.022428 
L 238.806072 41.120108 
L 239.191067 41.186942 
L 240.580804 41.214516 
L 240.956408 41.166222 
L 242.787481 41.094558 
L 244.900256 41.126028 
L 245.407322 41.080693 
L 246.534136 41.082407 
L 247.651559 41.082095 
L 256.450096 41.338837 
L 256.994723 41.276209 
L 257.398498 41.206883 
L 257.548739 41.228382 
L 257.755322 41.253931 
L 258.008855 41.241468 
L 259.28591 41.121043 
L 261.116983 41.291009 
L 261.586488 41.372643 
L 262.055994 41.400841 
L 263.032566 41.186319 
L 263.201588 41.291944 
L 264.018528 41.407851 
L 264.309621 41.428571 
L 264.469253 41.447578 
L 265.802649 41.336967 
L 267.182996 41.386976 
L 268.394321 41.315935 
L 268.798096 41.369683 
L 269.258211 41.413148 
L 269.868569 41.375759 
L 270.178442 41.376382 
L 270.572827 41.254243 
L 270.629168 41.190369 
L 270.704289 41.243026 
L 270.845141 41.223241 
L 271.755982 41.217165 
L 271.896833 41.193173 
L 272.676213 41.260786 
L 276.836033 41.298331 
L 277.249198 41.422184 
L 278.160039 41.462845 
L 279.01454 41.377628 
L 281.249387 41.379186 
L 282.817536 41.256735 
L 283.587525 41.248011 
L 285.136894 41.230407 
L 287.34357 41.410967 
L 287.878807 41.529679 
L 289.362445 41.568315 
L 289.587808 41.455523 
L 289.79439 41.502727 
L 290.094874 41.492912 
L 290.61133 41.534508 
L 291.024495 41.530302 
L 291.268638 41.535287 
L 292.22643 41.460197 
L 292.404842 41.410967 
L 292.545694 41.466428 
L 292.799227 41.457237 
L 293.09971 41.439321 
L 293.343853 41.375914 
L 293.719458 41.448668 
L 294.780541 41.499923 
L 295.081024 41.423586 
L 295.456629 41.40271 
L 295.466019 41.361738 
L 295.503579 41.416887 
L 295.55992 41.419847 
L 295.766503 41.492912 
L 295.775893 41.479203 
L 295.982475 41.444462 
L 296.179668 41.485746 
L 296.677344 41.35426 
L 297.325261 41.104062 
L 298.104641 41.096428 
L 298.668048 41.280104 
L 299.494378 41.357999 
L 300.48034 41.313443 
L 300.959235 41.338213 
L 301.419351 41.219502 
L 302.865429 41.21031 
L 304.396017 41.231965 
L 304.518089 41.269199 
L 304.65894 41.342887 
L 307.823409 41.400529 
L 307.9267 41.313443 
L 308.048771 41.323569 
L 308.7812 41.264836 
L 308.978393 41.262811 
L 309.62631 41.290386 
L 309.832893 41.325594 
L 310.922146 41.465805 
L 311.504333 41.346003 
L 312.283713 41.227603 
L 315.532692 41.224954 
L 316.143049 41.194575 
L 316.819138 41.185228 
L 318.171314 41.184293 
L 322.875761 41.229472 
L 324.584762 41.197847 
L 325.326581 41.184761 
L 327.138873 41.193952 
L 329.908956 41.176504 
L 330.040418 41.146281 
L 331.702468 41.174479 
L 335.834118 41.272314 
L 336.115822 41.254087 
L 337.66519 41.278858 
L 337.843602 41.308146 
L 344.519973 41.444618 
L 344.604484 41.37498 
L 344.651435 41.394298 
L 344.811067 41.393674 
L 344.989479 41.400062 
L 345.318133 41.412058 
L 345.543496 41.363296 
L 346.520068 41.265771 
L 357.281138 41.198159 
L 357.947836 41.317182 
L 358.173199 41.273249 
L 359.741348 41.174167 
L 360.135733 41.177127 
L 361.215596 41.12042 
L 361.60059 41.067139 
L 362.351799 41.076643 
L 362.905816 41.118706 
L 364.427015 41.028815 
L 365.459927 41.071034 
L 365.976383 41.078045 
L 368.568055 41.059194 
L 369.929621 41.107177 
L 370.709001 41.127274 
L 371.187897 41.140361 
L 373.000188 41.164508 
L 375.526129 41.107489 
L 382.559324 41.334474 
L 382.831638 41.370929 
L 384.503078 41.371708 
L 384.70966 41.336032 
L 387.348282 41.358154 
L 387.489134 41.365788 
L 387.799008 41.468142 
L 387.864739 41.386041 
L 387.911689 41.44119 
L 388.230953 41.386976 
L 388.381195 41.400034 
L 391.836757 41.350521 
L 392.578576 41.399127 
L 392.841499 41.430752 
L 393.226494 41.449447 
L 393.498807 41.467519 
L 393.911972 41.520487 
L 394.127945 41.539182 
L 394.390868 41.518462 
L 394.926104 41.498677 
L 401.386502 41.500702 
L 401.611865 41.462533 
L 402.109541 41.453079 
L 403.715251 41.297007 
L 404.043905 41.338157 
L 410.532473 41.286647 
L 411.377584 41.217009 
L 418.974186 41.326062 
L 419.161988 41.369527 
L 420.673796 41.478736 
L 420.98367 41.457392 
L 421.152692 41.338837 
L 421.190252 41.375291 
L 421.199643 41.394142 
L 421.255983 41.328554 
L 421.274763 41.334942 
L 421.378055 41.304874 
L 421.396835 41.319051 
L 422.6645 41.325127 
L 426.007381 41.331047 
L 426.148233 41.318895 
L 427.115414 41.369994 
L 427.62248 41.300668 
L 428.965267 41.389646 
L 430.10147 41.2921 
L 430.514635 41.151733 
L 437.435149 41.247752 
L 437.613561 41.331514 
L 438.29904 41.330424 
L 438.458672 41.29911 
L 438.712205 41.340862 
L 439.97048 41.471881 
L 440.374255 41.508647 
L 440.890711 41.403801 
L 440.909491 41.371708 
L 440.975222 41.471258 
L 441.116074 41.481851 
L 441.60436 41.52002 
L 442.242888 41.516748 
L 442.562151 41.510049 
L 442.853245 41.486681 
L 443.069218 41.464559 
L 444.477735 41.319674 
L 449.717418 41.382925 
L 450.205704 41.438075 
L 450.449847 41.359557 
L 451.651782 41.330735 
L 452.233969 41.277767 
L 453.229321 41.223396 
L 454.515766 41.240222 
L 454.881981 41.284933 
L 456.046355 41.427948 
L 456.243547 41.468921 
L 456.788174 41.467363 
L 456.891465 41.396479 
L 456.919635 41.417355 
L 457.248289 41.425923 
L 457.360971 41.454432 
L 457.529993 41.492134 
L 458.12157 41.480605 
L 458.253032 41.471881 
L 458.497175 41.405203 
L 458.713147 41.356908 
L 462.22505 41.233679 
L 463.192231 41.218567 
L 465.173545 41.198314 
L 469.061053 41.216386 
L 473.192703 41.189746 
L 477.483985 41.300668 
L 477.615446 41.308302 
L 478.207023 41.283375 
L 478.357265 41.287114 
L 478.76104 41.341018 
L 479.080304 41.375136 
L 479.221156 41.334319 
L 480.244678 41.379498 
L 480.43248 41.378874 
L 480.582722 41.358933 
L 480.723574 41.42639 
L 480.892596 41.499611 
L 481.568684 41.391649 
L 481.662585 41.369839 
L 481.625025 41.420938 
L 481.681366 41.388066 
L 481.859778 41.488239 
L 486.921049 41.429039 
L 487.165192 41.402243 
L 487.437505 41.381056 
L 488.047863 41.37202 
L 488.799072 41.376538 
L 488.986874 41.468298 
L 489.005654 41.406293 
L 489.137116 41.364386 
L 489.44699 41.360024 
L 489.653572 41.346003 
L 489.944666 41.309237 
L 490.226369 41.268731 
L 490.705265 41.229472 
L 491.221721 41.211868 
L 491.785128 41.202365 
L 493.334497 41.185072 
L 493.822783 41.161704 
L 495.325201 41.175257 
L 496.630427 41.176192 
L 497.541268 41.248946 
L 497.69151 41.267329 
L 497.898092 41.28322 
L 498.508449 41.237729 
L 498.630521 41.218723 
L 498.846494 41.198782 
L 499.635263 41.346782 
L 500.132939 41.375914 
L 502.208154 41.440723 
L 502.508638 41.431999 
L 506.536997 41.320921 
L 508.508921 41.266083 
L 508.649772 41.296306 
L 508.659162 41.288672 
L 508.818794 41.267018 
L 508.969036 41.384327 
L 510.724987 41.537157 
L 510.978521 41.541363 
L 512.142895 41.536689 
L 512.218016 41.526563 
L 512.236796 41.502416 
L 512.415208 41.446643 
L 512.57484 41.530769 
L 512.988005 41.504441 
L 513.128857 41.492445 
L 514.27445 41.41346 
L 514.631275 41.396634 
L 514.640665 41.323569 
L 514.743956 41.381834 
L 515.082 41.388845 
L 517.335628 41.389936 
L 520.932041 41.349742 
L 521.082283 41.335877 
L 522.857014 41.312975 
L 524.519065 41.451628 
L 524.706867 41.491043 
L 525.429906 41.499923 
L 525.75856 41.511763 
L 526.885373 41.494159 
L 529.655457 41.474997 
L 530.115572 41.442281 
L 530.566298 41.465493 
L 530.951293 41.489018 
L 531.467749 41.618323 
L 534.256613 41.51114 
L 534.566486 41.489018 
L 534.820019 41.42639 
L 535.251965 41.385262 
L 539.036181 41.307055 
L 540.970544 41.35831 
L 541.721753 41.331982 
L 542.904907 41.379498 
L 543.449534 41.362828 
L 543.806358 41.360024 
L 544.088062 41.362205 
L 546.40742 41.329957 
L 547.055338 41.324037 
L 548.93336 41.307055 
L 552.20112 41.201274 
L 555.713023 41.264992 
L 556.436061 41.363451 
L 556.717765 41.376226 
L 556.943128 41.291632 
L 557.468974 41.3809 
L 557.797628 41.451784 
L 569.55405 41.364386 
L 569.798193 41.448668 
L 576.352493 41.558033 
L 576.671757 41.394298 
L 577.976982 41.478424 
L 578.502829 41.394142 
L 578.690631 41.460976 
L 579.44184 41.419068 
L 579.554522 41.317493 
L 579.563912 41.323569 
L 579.751714 41.308613 
L 580.474753 41.287114 
L 580.784626 41.291632 
L 581.686077 41.267952 
L 588.343668 41.270133 
L 588.672322 41.282908 
L 589.827306 41.248946 
L 591.339114 41.231653 
L 591.733499 41.246298 
L 597.855853 41.254243 
L 598.109386 41.329645 
L 599.24559 41.350832 
L 599.827777 41.328243 
L 602.888954 41.270289 
L 603.189438 41.255645 
L 603.630773 41.230251 
L 604.842098 41.260786 
L 608.410341 41.32762 
L 608.804726 41.313754 
L 611.077134 41.318584 
L 611.330667 41.274963 
L 611.546639 41.255956 
L 611.941024 41.243338 
L 612.485651 41.26655 
L 613.086618 41.34538 
L 613.837827 41.478891 
L 615.528047 41.53295 
L 615.809751 41.554294 
L 615.819141 41.526719 
L 615.866092 41.468298 
L 615.931822 41.550399 
L 616.57974 41.618323 
L 621.143336 41.510672 
L 621.312358 41.502727 
L 621.594061 41.500079 
L 622.551853 41.467986 
L 622.636364 41.474374 
L 622.636364 41.474374 
" style="fill:none;stroke:#1f77b4;stroke-linecap:square;stroke-width:1.5;"/>
   </g>
   <g id="patch_3">
    <path d="M 90 57.6 
L 90 8.64 
" style="fill:none;stroke:#000000;stroke-linecap:square;stroke-linejoin:miter;stroke-width:0.8;"/>
   </g>
   <g id="patch_4">
    <path d="M 648 57.6 
L 648 8.64 
" style="fill:none;stroke:#000000;stroke-linecap:square;stroke-linejoin:miter;stroke-width:0.8;"/>
   </g>
   <g id="patch_5">
    <path d="M 90 57.6 
L 648 57.6 
" style="fill:none;stroke:#000000;stroke-linecap:square;stroke-linejoin:miter;stroke-width:0.8;"/>
   </g>
   <g id="patch_6">
    <path d="M 90 8.64 
L 648 8.64 
" style="fill:none;stroke:#000000;stroke-linecap:square;stroke-linejoin:miter;stroke-width:0.8;"/>
   </g>
   <g id="legend_1">
    <g id="patch_7">
     <path d="M 510.004688 31.318125 
L 641 31.318125 
Q 643 31.318125 643 29.318125 
L 643 15.64 
Q 643 13.64 641 13.64 
L 510.004688 13.64 
Q 508.004688 13.64 508.004688 15.64 
L 508.004688 29.318125 
Q 508.004688 31.318125 510.004688 31.318125 
z
" style="fill:#ffffff;opacity:0.8;stroke:#cccccc;stroke-linejoin:miter;"/>
    </g>
    <g id="line2d_11">
     <path d="M 512.004688 21.738438 
L 532.004688 21.738438 
" style="fill:none;stroke:#1f77b4;stroke-linecap:square;stroke-width:1.5;"/>
    </g>
    <g id="line2d_12"/>
    <g id="text_11">
     <!-- TCS TEMP OUT EXIT -->
     <g transform="translate(540.004688 25.238438)scale(0.1 -0.1)">
      <defs>
       <path d="M 64.40625 67.28125 
L 64.40625 56.890625 
Q 59.421875 61.53125 53.78125 63.8125 
Q 48.140625 66.109375 41.796875 66.109375 
Q 29.296875 66.109375 22.65625 58.46875 
Q 16.015625 50.828125 16.015625 36.375 
Q 16.015625 21.96875 22.65625 14.328125 
Q 29.296875 6.6875 41.796875 6.6875 
Q 48.140625 6.6875 53.78125 8.984375 
Q 59.421875 11.28125 64.40625 15.921875 
L 64.40625 5.609375 
Q 59.234375 2.09375 53.4375 0.328125 
Q 47.65625 -1.421875 41.21875 -1.421875 
Q 24.65625 -1.421875 15.125 8.703125 
Q 5.609375 18.84375 5.609375 36.375 
Q 5.609375 53.953125 15.125 64.078125 
Q 24.65625 74.21875 41.21875 74.21875 
Q 47.75 74.21875 53.53125 72.484375 
Q 59.328125 70.75 64.40625 67.28125 
z
" id="DejaVuSans-67"/>
       <path d="M 53.515625 70.515625 
L 53.515625 60.890625 
Q 47.90625 63.578125 42.921875 64.890625 
Q 37.9375 66.21875 33.296875 66.21875 
Q 25.25 66.21875 20.875 63.09375 
Q 16.5 59.96875 16.5 54.203125 
Q 16.5 49.359375 19.40625 46.890625 
Q 22.3125 44.4375 30.421875 42.921875 
L 36.375 41.703125 
Q 47.40625 39.59375 52.65625 34.296875 
Q 57.90625 29 57.90625 20.125 
Q 57.90625 9.515625 50.796875 4.046875 
Q 43.703125 -1.421875 29.984375 -1.421875 
Q 24.8125 -1.421875 18.96875 -0.25 
Q 13.140625 0.921875 6.890625 3.21875 
L 6.890625 13.375 
Q 12.890625 10.015625 18.65625 8.296875 
Q 24.421875 6.59375 29.984375 6.59375 
Q 38.421875 6.59375 43.015625 9.90625 
Q 47.609375 13.234375 47.609375 19.390625 
Q 47.609375 24.75 44.3125 27.78125 
Q 41.015625 30.8125 33.5 32.328125 
L 27.484375 33.5 
Q 16.453125 35.6875 11.515625 40.375 
Q 6.59375 45.0625 6.59375 53.421875 
Q 6.59375 63.09375 13.40625 68.65625 
Q 20.21875 74.21875 32.171875 74.21875 
Q 37.3125 74.21875 42.625 73.28125 
Q 47.953125 72.359375 53.515625 70.515625 
z
" id="DejaVuSans-83"/>
       <path id="DejaVuSans-32"/>
       <path d="M 9.8125 72.90625 
L 55.90625 72.90625 
L 55.90625 64.59375 
L 19.671875 64.59375 
L 19.671875 43.015625 
L 54.390625 43.015625 
L 54.390625 34.71875 
L 19.671875 34.71875 
L 19.671875 8.296875 
L 56.78125 8.296875 
L 56.78125 0 
L 9.8125 0 
z
" id="DejaVuSans-69"/>
       <path d="M 9.8125 72.90625 
L 24.515625 72.90625 
L 43.109375 23.296875 
L 61.8125 72.90625 
L 76.515625 72.90625 
L 76.515625 0 
L 66.890625 0 
L 66.890625 64.015625 
L 48.09375 14.015625 
L 38.1875 14.015625 
L 19.390625 64.015625 
L 19.390625 0 
L 9.8125 0 
z
" id="DejaVuSans-77"/>
       <path d="M 19.671875 64.796875 
L 19.671875 37.40625 
L 32.078125 37.40625 
Q 38.96875 37.40625 42.71875 40.96875 
Q 46.484375 44.53125 46.484375 51.125 
Q 46.484375 57.671875 42.71875 61.234375 
Q 38.96875 64.796875 32.078125 64.796875 
z
M 9.8125 72.90625 
L 32.078125 72.90625 
Q 44.34375 72.90625 50.609375 67.359375 
Q 56.890625 61.8125 56.890625 51.125 
Q 56.890625 40.328125 50.609375 34.8125 
Q 44.34375 29.296875 32.078125 29.296875 
L 19.671875 29.296875 
L 19.671875 0 
L 9.8125 0 
z
" id="DejaVuSans-80"/>
       <path d="M 39.40625 66.21875 
Q 28.65625 66.21875 22.328125 58.203125 
Q 16.015625 50.203125 16.015625 36.375 
Q 16.015625 22.609375 22.328125 14.59375 
Q 28.65625 6.59375 39.40625 6.59375 
Q 50.140625 6.59375 56.421875 14.59375 
Q 62.703125 22.609375 62.703125 36.375 
Q 62.703125 50.203125 56.421875 58.203125 
Q 50.140625 66.21875 39.40625 66.21875 
z
M 39.40625 74.21875 
Q 54.734375 74.21875 63.90625 63.9375 
Q 73.09375 53.65625 73.09375 36.375 
Q 73.09375 19.140625 63.90625 8.859375 
Q 54.734375 -1.421875 39.40625 -1.421875 
Q 24.03125 -1.421875 14.8125 8.828125 
Q 5.609375 19.09375 5.609375 36.375 
Q 5.609375 53.65625 14.8125 63.9375 
Q 24.03125 74.21875 39.40625 74.21875 
z
" id="DejaVuSans-79"/>
       <path d="M 8.6875 72.90625 
L 18.609375 72.90625 
L 18.609375 28.609375 
Q 18.609375 16.890625 22.84375 11.734375 
Q 27.09375 6.59375 36.625 6.59375 
Q 46.09375 6.59375 50.34375 11.734375 
Q 54.59375 16.890625 54.59375 28.609375 
L 54.59375 72.90625 
L 64.5 72.90625 
L 64.5 27.390625 
Q 64.5 13.140625 57.4375 5.859375 
Q 50.390625 -1.421875 36.625 -1.421875 
Q 22.796875 -1.421875 15.734375 5.859375 
Q 8.6875 13.140625 8.6875 27.390625 
z
" id="DejaVuSans-85"/>
       <path d="M 6.296875 72.90625 
L 16.890625 72.90625 
L 35.015625 45.796875 
L 53.21875 72.90625 
L 63.8125 72.90625 
L 40.375 37.890625 
L 65.375 0 
L 54.78125 0 
L 34.28125 31 
L 13.625 0 
L 2.984375 0 
L 29 38.921875 
z
" id="DejaVuSans-88"/>
       <path d="M 9.8125 72.90625 
L 19.671875 72.90625 
L 19.671875 0 
L 9.8125 0 
z
" id="DejaVuSans-73"/>
      </defs>
      <use xlink:href="#DejaVuSans-84"/>
      <use x="55.208984" xlink:href="#DejaVuSans-67"/>
      <use x="125.033203" xlink:href="#DejaVuSans-83"/>
      <use x="188.509766" xlink:href="#DejaVuSans-32"/>
      <use x="220.296875" xlink:href="#DejaVuSans-84"/>
      <use x="281.380859" xlink:href="#DejaVuSans-69"/>
      <use x="344.564453" xlink:href="#DejaVuSans-77"/>
      <use x="430.84375" xlink:href="#DejaVuSans-80"/>
      <use x="491.146484" xlink:href="#DejaVuSans-32"/>
      <use x="522.933594" xlink:href="#DejaVuSans-79"/>
      <use x="601.644531" xlink:href="#DejaVuSans-85"/>
      <use x="674.837891" xlink:href="#DejaVuSans-84"/>
      <use x="735.921875" xlink:href="#DejaVuSans-32"/>
      <use x="767.708984" xlink:href="#DejaVuSans-69"/>
      <use x="830.892578" xlink:href="#DejaVuSans-88"/>
      <use x="899.398438" xlink:href="#DejaVuSans-73"/>
      <use x="928.890625" xlink:href="#DejaVuSans-84"/>
     </g>
    </g>
   </g>
  </g>
 </g>
 <defs>
  <clipPath id="p229e0fbb06">
   <rect height="48.96" width="558" x="90" y="8.64"/>
  </clipPath>
 </defs>
</svg>
