<?xml version="1.0" encoding="utf-8" standalone="no"?>
<!DOCTYPE svg PUBLIC "-//W3C//DTD SVG 1.1//EN"
  "http://www.w3.org/Graphics/SVG/1.1/DTD/svg11.dtd">
<!-- Created with matplotlib (https://matplotlib.org/) -->
<svg height="86.4pt" version="1.1" viewBox="0 0 1080 86.4" width="1080pt" xmlns="http://www.w3.org/2000/svg" xmlns:xlink="http://www.w3.org/1999/xlink">
 <metadata>
  <rdf:RDF xmlns:cc="http://creativecommons.org/ns#" xmlns:dc="http://purl.org/dc/elements/1.1/" xmlns:rdf="http://www.w3.org/1999/02/22-rdf-syntax-ns#">
   <cc:Work>
    <dc:type rdf:resource="http://purl.org/dc/dcmitype/StillImage"/>
    <dc:date>2021-02-05T21:53:06.086136</dc:date>
    <dc:format>image/svg+xml</dc:format>
    <dc:creator>
     <cc:Agent>
      <dc:title>Matplotlib v3.3.3, https://matplotlib.org/</dc:title>
     </cc:Agent>
    </dc:creator>
   </cc:Work>
  </rdf:RDF>
 </metadata>
 <defs>
  <style type="text/css">*{stroke-linecap:butt;stroke-linejoin:round;}</style>
 </defs>
 <g id="figure_1">
  <g id="patch_1">
   <path d="M 0 86.4 
L 1080 86.4 
L 1080 0 
L 0 0 
z
" style="fill:#ffffff;"/>
  </g>
  <g id="axes_1">
   <g id="patch_2">
    <path d="M 135 69.12 
L 972 69.12 
L 972 10.368 
L 135 10.368 
z
" style="fill:#ffffff;"/>
   </g>
   <g id="matplotlib.axis_1">
    <g id="xtick_1">
     <g id="line2d_1">
      <defs>
       <path d="M 0 0 
L 0 3.5 
" id="mb5c362dd44" style="stroke:#000000;stroke-width:0.8;"/>
      </defs>
      <g>
       <use style="stroke:#000000;stroke-width:0.8;" x="173.045455" xlink:href="#mb5c362dd44" y="69.12"/>
      </g>
     </g>
     <g id="text_1">
      <!-- 2018-03 -->
      <g transform="translate(131.262642 83.718437)scale(0.1 -0.1)">
       <defs>
        <path d="M 19.1875 8.296875 
L 53.609375 8.296875 
L 53.609375 0 
L 7.328125 0 
L 7.328125 8.296875 
Q 12.9375 14.109375 22.625 23.890625 
Q 32.328125 33.6875 34.8125 36.53125 
Q 39.546875 41.84375 41.421875 45.53125 
Q 43.3125 49.21875 43.3125 52.78125 
Q 43.3125 58.59375 39.234375 62.25 
Q 35.15625 65.921875 28.609375 65.921875 
Q 23.96875 65.921875 18.8125 64.3125 
Q 13.671875 62.703125 7.8125 59.421875 
L 7.8125 69.390625 
Q 13.765625 71.78125 18.9375 73 
Q 24.125 74.21875 28.421875 74.21875 
Q 39.75 74.21875 46.484375 68.546875 
Q 53.21875 62.890625 53.21875 53.421875 
Q 53.21875 48.921875 51.53125 44.890625 
Q 49.859375 40.875 45.40625 35.40625 
Q 44.1875 33.984375 37.640625 27.21875 
Q 31.109375 20.453125 19.1875 8.296875 
z
" id="DejaVuSans-50"/>
        <path d="M 31.78125 66.40625 
Q 24.171875 66.40625 20.328125 58.90625 
Q 16.5 51.421875 16.5 36.375 
Q 16.5 21.390625 20.328125 13.890625 
Q 24.171875 6.390625 31.78125 6.390625 
Q 39.453125 6.390625 43.28125 13.890625 
Q 47.125 21.390625 47.125 36.375 
Q 47.125 51.421875 43.28125 58.90625 
Q 39.453125 66.40625 31.78125 66.40625 
z
M 31.78125 74.21875 
Q 44.046875 74.21875 50.515625 64.515625 
Q 56.984375 54.828125 56.984375 36.375 
Q 56.984375 17.96875 50.515625 8.265625 
Q 44.046875 -1.421875 31.78125 -1.421875 
Q 19.53125 -1.421875 13.0625 8.265625 
Q 6.59375 17.96875 6.59375 36.375 
Q 6.59375 54.828125 13.0625 64.515625 
Q 19.53125 74.21875 31.78125 74.21875 
z
" id="DejaVuSans-48"/>
        <path d="M 12.40625 8.296875 
L 28.515625 8.296875 
L 28.515625 63.921875 
L 10.984375 60.40625 
L 10.984375 69.390625 
L 28.421875 72.90625 
L 38.28125 72.90625 
L 38.28125 8.296875 
L 54.390625 8.296875 
L 54.390625 0 
L 12.40625 0 
z
" id="DejaVuSans-49"/>
        <path d="M 31.78125 34.625 
Q 24.75 34.625 20.71875 30.859375 
Q 16.703125 27.09375 16.703125 20.515625 
Q 16.703125 13.921875 20.71875 10.15625 
Q 24.75 6.390625 31.78125 6.390625 
Q 38.8125 6.390625 42.859375 10.171875 
Q 46.921875 13.96875 46.921875 20.515625 
Q 46.921875 27.09375 42.890625 30.859375 
Q 38.875 34.625 31.78125 34.625 
z
M 21.921875 38.8125 
Q 15.578125 40.375 12.03125 44.71875 
Q 8.5 49.078125 8.5 55.328125 
Q 8.5 64.0625 14.71875 69.140625 
Q 20.953125 74.21875 31.78125 74.21875 
Q 42.671875 74.21875 48.875 69.140625 
Q 55.078125 64.0625 55.078125 55.328125 
Q 55.078125 49.078125 51.53125 44.71875 
Q 48 40.375 41.703125 38.8125 
Q 48.828125 37.15625 52.796875 32.3125 
Q 56.78125 27.484375 56.78125 20.515625 
Q 56.78125 9.90625 50.3125 4.234375 
Q 43.84375 -1.421875 31.78125 -1.421875 
Q 19.734375 -1.421875 13.25 4.234375 
Q 6.78125 9.90625 6.78125 20.515625 
Q 6.78125 27.484375 10.78125 32.3125 
Q 14.796875 37.15625 21.921875 38.8125 
z
M 18.3125 54.390625 
Q 18.3125 48.734375 21.84375 45.5625 
Q 25.390625 42.390625 31.78125 42.390625 
Q 38.140625 42.390625 41.71875 45.5625 
Q 45.3125 48.734375 45.3125 54.390625 
Q 45.3125 60.0625 41.71875 63.234375 
Q 38.140625 66.40625 31.78125 66.40625 
Q 25.390625 66.40625 21.84375 63.234375 
Q 18.3125 60.0625 18.3125 54.390625 
z
" id="DejaVuSans-56"/>
        <path d="M 4.890625 31.390625 
L 31.203125 31.390625 
L 31.203125 23.390625 
L 4.890625 23.390625 
z
" id="DejaVuSans-45"/>
        <path d="M 40.578125 39.3125 
Q 47.65625 37.796875 51.625 33 
Q 55.609375 28.21875 55.609375 21.1875 
Q 55.609375 10.40625 48.1875 4.484375 
Q 40.765625 -1.421875 27.09375 -1.421875 
Q 22.515625 -1.421875 17.65625 -0.515625 
Q 12.796875 0.390625 7.625 2.203125 
L 7.625 11.71875 
Q 11.71875 9.328125 16.59375 8.109375 
Q 21.484375 6.890625 26.8125 6.890625 
Q 36.078125 6.890625 40.9375 10.546875 
Q 45.796875 14.203125 45.796875 21.1875 
Q 45.796875 27.640625 41.28125 31.265625 
Q 36.765625 34.90625 28.71875 34.90625 
L 20.21875 34.90625 
L 20.21875 43.015625 
L 29.109375 43.015625 
Q 36.375 43.015625 40.234375 45.921875 
Q 44.09375 48.828125 44.09375 54.296875 
Q 44.09375 59.90625 40.109375 62.90625 
Q 36.140625 65.921875 28.71875 65.921875 
Q 24.65625 65.921875 20.015625 65.03125 
Q 15.375 64.15625 9.8125 62.3125 
L 9.8125 71.09375 
Q 15.4375 72.65625 20.34375 73.4375 
Q 25.25 74.21875 29.59375 74.21875 
Q 40.828125 74.21875 47.359375 69.109375 
Q 53.90625 64.015625 53.90625 55.328125 
Q 53.90625 49.265625 50.4375 45.09375 
Q 46.96875 40.921875 40.578125 39.3125 
z
" id="DejaVuSans-51"/>
       </defs>
       <use xlink:href="#DejaVuSans-50"/>
       <use x="63.623047" xlink:href="#DejaVuSans-48"/>
       <use x="127.246094" xlink:href="#DejaVuSans-49"/>
       <use x="190.869141" xlink:href="#DejaVuSans-56"/>
       <use x="254.492188" xlink:href="#DejaVuSans-45"/>
       <use x="290.576172" xlink:href="#DejaVuSans-48"/>
       <use x="354.199219" xlink:href="#DejaVuSans-51"/>
      </g>
     </g>
    </g>
    <g id="xtick_2">
     <g id="line2d_2">
      <g>
       <use style="stroke:#000000;stroke-width:0.8;" x="316.004132" xlink:href="#mb5c362dd44" y="69.12"/>
      </g>
     </g>
     <g id="text_2">
      <!-- 2018-04 -->
      <g transform="translate(274.22132 83.718437)scale(0.1 -0.1)">
       <defs>
        <path d="M 37.796875 64.3125 
L 12.890625 25.390625 
L 37.796875 25.390625 
z
M 35.203125 72.90625 
L 47.609375 72.90625 
L 47.609375 25.390625 
L 58.015625 25.390625 
L 58.015625 17.1875 
L 47.609375 17.1875 
L 47.609375 0 
L 37.796875 0 
L 37.796875 17.1875 
L 4.890625 17.1875 
L 4.890625 26.703125 
z
" id="DejaVuSans-52"/>
       </defs>
       <use xlink:href="#DejaVuSans-50"/>
       <use x="63.623047" xlink:href="#DejaVuSans-48"/>
       <use x="127.246094" xlink:href="#DejaVuSans-49"/>
       <use x="190.869141" xlink:href="#DejaVuSans-56"/>
       <use x="254.492188" xlink:href="#DejaVuSans-45"/>
       <use x="290.576172" xlink:href="#DejaVuSans-48"/>
       <use x="354.199219" xlink:href="#DejaVuSans-52"/>
      </g>
     </g>
    </g>
    <g id="xtick_3">
     <g id="line2d_3">
      <g>
       <use style="stroke:#000000;stroke-width:0.8;" x="454.35124" xlink:href="#mb5c362dd44" y="69.12"/>
      </g>
     </g>
     <g id="text_3">
      <!-- 2018-05 -->
      <g transform="translate(412.568427 83.718437)scale(0.1 -0.1)">
       <defs>
        <path d="M 10.796875 72.90625 
L 49.515625 72.90625 
L 49.515625 64.59375 
L 19.828125 64.59375 
L 19.828125 46.734375 
Q 21.96875 47.46875 24.109375 47.828125 
Q 26.265625 48.1875 28.421875 48.1875 
Q 40.625 48.1875 47.75 41.5 
Q 54.890625 34.8125 54.890625 23.390625 
Q 54.890625 11.625 47.5625 5.09375 
Q 40.234375 -1.421875 26.90625 -1.421875 
Q 22.3125 -1.421875 17.546875 -0.640625 
Q 12.796875 0.140625 7.71875 1.703125 
L 7.71875 11.625 
Q 12.109375 9.234375 16.796875 8.0625 
Q 21.484375 6.890625 26.703125 6.890625 
Q 35.15625 6.890625 40.078125 11.328125 
Q 45.015625 15.765625 45.015625 23.390625 
Q 45.015625 31 40.078125 35.4375 
Q 35.15625 39.890625 26.703125 39.890625 
Q 22.75 39.890625 18.8125 39.015625 
Q 14.890625 38.140625 10.796875 36.28125 
z
" id="DejaVuSans-53"/>
       </defs>
       <use xlink:href="#DejaVuSans-50"/>
       <use x="63.623047" xlink:href="#DejaVuSans-48"/>
       <use x="127.246094" xlink:href="#DejaVuSans-49"/>
       <use x="190.869141" xlink:href="#DejaVuSans-56"/>
       <use x="254.492188" xlink:href="#DejaVuSans-45"/>
       <use x="290.576172" xlink:href="#DejaVuSans-48"/>
       <use x="354.199219" xlink:href="#DejaVuSans-53"/>
      </g>
     </g>
    </g>
    <g id="xtick_4">
     <g id="line2d_4">
      <g>
       <use style="stroke:#000000;stroke-width:0.8;" x="597.309917" xlink:href="#mb5c362dd44" y="69.12"/>
      </g>
     </g>
     <g id="text_4">
      <!-- 2018-06 -->
      <g transform="translate(555.527105 83.718437)scale(0.1 -0.1)">
       <defs>
        <path d="M 33.015625 40.375 
Q 26.375 40.375 22.484375 35.828125 
Q 18.609375 31.296875 18.609375 23.390625 
Q 18.609375 15.53125 22.484375 10.953125 
Q 26.375 6.390625 33.015625 6.390625 
Q 39.65625 6.390625 43.53125 10.953125 
Q 47.40625 15.53125 47.40625 23.390625 
Q 47.40625 31.296875 43.53125 35.828125 
Q 39.65625 40.375 33.015625 40.375 
z
M 52.59375 71.296875 
L 52.59375 62.3125 
Q 48.875 64.0625 45.09375 64.984375 
Q 41.3125 65.921875 37.59375 65.921875 
Q 27.828125 65.921875 22.671875 59.328125 
Q 17.53125 52.734375 16.796875 39.40625 
Q 19.671875 43.65625 24.015625 45.921875 
Q 28.375 48.1875 33.59375 48.1875 
Q 44.578125 48.1875 50.953125 41.515625 
Q 57.328125 34.859375 57.328125 23.390625 
Q 57.328125 12.15625 50.6875 5.359375 
Q 44.046875 -1.421875 33.015625 -1.421875 
Q 20.359375 -1.421875 13.671875 8.265625 
Q 6.984375 17.96875 6.984375 36.375 
Q 6.984375 53.65625 15.1875 63.9375 
Q 23.390625 74.21875 37.203125 74.21875 
Q 40.921875 74.21875 44.703125 73.484375 
Q 48.484375 72.75 52.59375 71.296875 
z
" id="DejaVuSans-54"/>
       </defs>
       <use xlink:href="#DejaVuSans-50"/>
       <use x="63.623047" xlink:href="#DejaVuSans-48"/>
       <use x="127.246094" xlink:href="#DejaVuSans-49"/>
       <use x="190.869141" xlink:href="#DejaVuSans-56"/>
       <use x="254.492188" xlink:href="#DejaVuSans-45"/>
       <use x="290.576172" xlink:href="#DejaVuSans-48"/>
       <use x="354.199219" xlink:href="#DejaVuSans-54"/>
      </g>
     </g>
    </g>
    <g id="xtick_5">
     <g id="line2d_5">
      <g>
       <use style="stroke:#000000;stroke-width:0.8;" x="735.657025" xlink:href="#mb5c362dd44" y="69.12"/>
      </g>
     </g>
     <g id="text_5">
      <!-- 2018-07 -->
      <g transform="translate(693.874212 83.718437)scale(0.1 -0.1)">
       <defs>
        <path d="M 8.203125 72.90625 
L 55.078125 72.90625 
L 55.078125 68.703125 
L 28.609375 0 
L 18.3125 0 
L 43.21875 64.59375 
L 8.203125 64.59375 
z
" id="DejaVuSans-55"/>
       </defs>
       <use xlink:href="#DejaVuSans-50"/>
       <use x="63.623047" xlink:href="#DejaVuSans-48"/>
       <use x="127.246094" xlink:href="#DejaVuSans-49"/>
       <use x="190.869141" xlink:href="#DejaVuSans-56"/>
       <use x="254.492188" xlink:href="#DejaVuSans-45"/>
       <use x="290.576172" xlink:href="#DejaVuSans-48"/>
       <use x="354.199219" xlink:href="#DejaVuSans-55"/>
      </g>
     </g>
    </g>
    <g id="xtick_6">
     <g id="line2d_6">
      <g>
       <use style="stroke:#000000;stroke-width:0.8;" x="878.615702" xlink:href="#mb5c362dd44" y="69.12"/>
      </g>
     </g>
     <g id="text_6">
      <!-- 2018-08 -->
      <g transform="translate(836.83289 83.718437)scale(0.1 -0.1)">
       <use xlink:href="#DejaVuSans-50"/>
       <use x="63.623047" xlink:href="#DejaVuSans-48"/>
       <use x="127.246094" xlink:href="#DejaVuSans-49"/>
       <use x="190.869141" xlink:href="#DejaVuSans-56"/>
       <use x="254.492188" xlink:href="#DejaVuSans-45"/>
       <use x="290.576172" xlink:href="#DejaVuSans-48"/>
       <use x="354.199219" xlink:href="#DejaVuSans-56"/>
      </g>
     </g>
    </g>
    <g id="text_7">
     <!-- Date_Time -->
     <g transform="translate(526.815625 97.396562)scale(0.1 -0.1)">
      <defs>
       <path d="M 19.671875 64.796875 
L 19.671875 8.109375 
L 31.59375 8.109375 
Q 46.6875 8.109375 53.6875 14.9375 
Q 60.6875 21.78125 60.6875 36.53125 
Q 60.6875 51.171875 53.6875 57.984375 
Q 46.6875 64.796875 31.59375 64.796875 
z
M 9.8125 72.90625 
L 30.078125 72.90625 
Q 51.265625 72.90625 61.171875 64.09375 
Q 71.09375 55.28125 71.09375 36.53125 
Q 71.09375 17.671875 61.125 8.828125 
Q 51.171875 0 30.078125 0 
L 9.8125 0 
z
" id="DejaVuSans-68"/>
       <path d="M 34.28125 27.484375 
Q 23.390625 27.484375 19.1875 25 
Q 14.984375 22.515625 14.984375 16.5 
Q 14.984375 11.71875 18.140625 8.90625 
Q 21.296875 6.109375 26.703125 6.109375 
Q 34.1875 6.109375 38.703125 11.40625 
Q 43.21875 16.703125 43.21875 25.484375 
L 43.21875 27.484375 
z
M 52.203125 31.203125 
L 52.203125 0 
L 43.21875 0 
L 43.21875 8.296875 
Q 40.140625 3.328125 35.546875 0.953125 
Q 30.953125 -1.421875 24.3125 -1.421875 
Q 15.921875 -1.421875 10.953125 3.296875 
Q 6 8.015625 6 15.921875 
Q 6 25.140625 12.171875 29.828125 
Q 18.359375 34.515625 30.609375 34.515625 
L 43.21875 34.515625 
L 43.21875 35.40625 
Q 43.21875 41.609375 39.140625 45 
Q 35.0625 48.390625 27.6875 48.390625 
Q 23 48.390625 18.546875 47.265625 
Q 14.109375 46.140625 10.015625 43.890625 
L 10.015625 52.203125 
Q 14.9375 54.109375 19.578125 55.046875 
Q 24.21875 56 28.609375 56 
Q 40.484375 56 46.34375 49.84375 
Q 52.203125 43.703125 52.203125 31.203125 
z
" id="DejaVuSans-97"/>
       <path d="M 18.3125 70.21875 
L 18.3125 54.6875 
L 36.8125 54.6875 
L 36.8125 47.703125 
L 18.3125 47.703125 
L 18.3125 18.015625 
Q 18.3125 11.328125 20.140625 9.421875 
Q 21.96875 7.515625 27.59375 7.515625 
L 36.8125 7.515625 
L 36.8125 0 
L 27.59375 0 
Q 17.1875 0 13.234375 3.875 
Q 9.28125 7.765625 9.28125 18.015625 
L 9.28125 47.703125 
L 2.6875 47.703125 
L 2.6875 54.6875 
L 9.28125 54.6875 
L 9.28125 70.21875 
z
" id="DejaVuSans-116"/>
       <path d="M 56.203125 29.59375 
L 56.203125 25.203125 
L 14.890625 25.203125 
Q 15.484375 15.921875 20.484375 11.0625 
Q 25.484375 6.203125 34.421875 6.203125 
Q 39.59375 6.203125 44.453125 7.46875 
Q 49.3125 8.734375 54.109375 11.28125 
L 54.109375 2.78125 
Q 49.265625 0.734375 44.1875 -0.34375 
Q 39.109375 -1.421875 33.890625 -1.421875 
Q 20.796875 -1.421875 13.15625 6.1875 
Q 5.515625 13.8125 5.515625 26.8125 
Q 5.515625 40.234375 12.765625 48.109375 
Q 20.015625 56 32.328125 56 
Q 43.359375 56 49.78125 48.890625 
Q 56.203125 41.796875 56.203125 29.59375 
z
M 47.21875 32.234375 
Q 47.125 39.59375 43.09375 43.984375 
Q 39.0625 48.390625 32.421875 48.390625 
Q 24.90625 48.390625 20.390625 44.140625 
Q 15.875 39.890625 15.1875 32.171875 
z
" id="DejaVuSans-101"/>
       <path d="M 50.984375 -16.609375 
L 50.984375 -23.578125 
L -0.984375 -23.578125 
L -0.984375 -16.609375 
z
" id="DejaVuSans-95"/>
       <path d="M -0.296875 72.90625 
L 61.375 72.90625 
L 61.375 64.59375 
L 35.5 64.59375 
L 35.5 0 
L 25.59375 0 
L 25.59375 64.59375 
L -0.296875 64.59375 
z
" id="DejaVuSans-84"/>
       <path d="M 9.421875 54.6875 
L 18.40625 54.6875 
L 18.40625 0 
L 9.421875 0 
z
M 9.421875 75.984375 
L 18.40625 75.984375 
L 18.40625 64.59375 
L 9.421875 64.59375 
z
" id="DejaVuSans-105"/>
       <path d="M 52 44.1875 
Q 55.375 50.25 60.0625 53.125 
Q 64.75 56 71.09375 56 
Q 79.640625 56 84.28125 50.015625 
Q 88.921875 44.046875 88.921875 33.015625 
L 88.921875 0 
L 79.890625 0 
L 79.890625 32.71875 
Q 79.890625 40.578125 77.09375 44.375 
Q 74.3125 48.1875 68.609375 48.1875 
Q 61.625 48.1875 57.5625 43.546875 
Q 53.515625 38.921875 53.515625 30.90625 
L 53.515625 0 
L 44.484375 0 
L 44.484375 32.71875 
Q 44.484375 40.625 41.703125 44.40625 
Q 38.921875 48.1875 33.109375 48.1875 
Q 26.21875 48.1875 22.15625 43.53125 
Q 18.109375 38.875 18.109375 30.90625 
L 18.109375 0 
L 9.078125 0 
L 9.078125 54.6875 
L 18.109375 54.6875 
L 18.109375 46.1875 
Q 21.1875 51.21875 25.484375 53.609375 
Q 29.78125 56 35.6875 56 
Q 41.65625 56 45.828125 52.96875 
Q 50 49.953125 52 44.1875 
z
" id="DejaVuSans-109"/>
      </defs>
      <use xlink:href="#DejaVuSans-68"/>
      <use x="77.001953" xlink:href="#DejaVuSans-97"/>
      <use x="138.28125" xlink:href="#DejaVuSans-116"/>
      <use x="177.490234" xlink:href="#DejaVuSans-101"/>
      <use x="239.013672" xlink:href="#DejaVuSans-95"/>
      <use x="289.013672" xlink:href="#DejaVuSans-84"/>
      <use x="346.972656" xlink:href="#DejaVuSans-105"/>
      <use x="374.755859" xlink:href="#DejaVuSans-109"/>
      <use x="472.167969" xlink:href="#DejaVuSans-101"/>
     </g>
    </g>
   </g>
   <g id="matplotlib.axis_2">
    <g id="ytick_1">
     <g id="line2d_7">
      <defs>
       <path d="M 0 0 
L -3.5 0 
" id="m5600cf41a9" style="stroke:#000000;stroke-width:0.8;"/>
      </defs>
      <g>
       <use style="stroke:#000000;stroke-width:0.8;" x="135" xlink:href="#m5600cf41a9" y="66.449455"/>
      </g>
     </g>
     <g id="text_8">
      <!-- 0 -->
      <g transform="translate(121.6375 70.248673)scale(0.1 -0.1)">
       <use xlink:href="#DejaVuSans-48"/>
      </g>
     </g>
    </g>
    <g id="ytick_2">
     <g id="line2d_8">
      <g>
       <use style="stroke:#000000;stroke-width:0.8;" x="135" xlink:href="#m5600cf41a9" y="36.776727"/>
      </g>
     </g>
     <g id="text_9">
      <!-- 5000 -->
      <g transform="translate(102.55 40.575946)scale(0.1 -0.1)">
       <use xlink:href="#DejaVuSans-53"/>
       <use x="63.623047" xlink:href="#DejaVuSans-48"/>
       <use x="127.246094" xlink:href="#DejaVuSans-48"/>
       <use x="190.869141" xlink:href="#DejaVuSans-48"/>
      </g>
     </g>
    </g>
   </g>
   <g id="line2d_9">
    <path clip-path="url(#p9597dc8ccc)" d="M 173.045455 66.449455 
L 173.157541 48.645818 
L 173.189566 48.645818 
L 173.301653 66.449455 
L 174.630682 66.449455 
L 174.742769 48.645818 
L 174.774793 48.645818 
L 174.88688 30.842182 
L 177.641012 30.842182 
L 177.657025 66.449455 
L 177.753099 48.645818 
L 177.801136 48.645818 
L 177.913223 66.449455 
L 179.242252 66.449455 
L 179.354339 48.645818 
L 179.386364 48.645818 
L 179.49845 30.842182 
L 182.252583 30.842182 
L 182.268595 66.449455 
L 182.364669 48.645818 
L 182.412707 48.645818 
L 182.524793 66.449455 
L 183.853822 66.449455 
L 183.965909 48.645818 
L 183.997934 48.645818 
L 184.110021 30.842182 
L 186.864153 30.842182 
L 186.880165 66.449455 
L 186.97624 48.645818 
L 187.024277 48.645818 
L 187.136364 66.449455 
L 188.465393 66.449455 
L 188.577479 48.645818 
L 188.609504 48.645818 
L 188.721591 30.842182 
L 191.475723 30.842182 
L 191.491736 66.449455 
L 191.58781 48.645818 
L 191.635847 48.645818 
L 191.747934 66.449455 
L 193.076963 66.449455 
L 193.18905 48.645818 
L 193.221074 48.645818 
L 193.333161 30.842182 
L 196.087293 30.842182 
L 196.103306 66.449455 
L 196.19938 48.645818 
L 196.247417 48.645818 
L 196.359504 66.449455 
L 197.688533 66.449455 
L 197.80062 48.645818 
L 197.832645 48.645818 
L 197.944731 30.842182 
L 200.698864 30.842182 
L 200.714876 66.449455 
L 200.81095 48.645818 
L 200.858988 48.645818 
L 200.971074 66.449455 
L 202.300103 66.449455 
L 202.41219 48.645818 
L 202.444215 48.645818 
L 202.556302 30.842182 
L 205.310434 30.842182 
L 205.326446 66.449455 
L 205.422521 48.645818 
L 205.470558 48.645818 
L 205.582645 66.449455 
L 206.911674 66.449455 
L 207.02376 48.645818 
L 207.055785 48.645818 
L 207.167872 30.842182 
L 209.922004 30.842182 
L 209.938017 66.449455 
L 210.034091 48.645818 
L 210.082128 48.645818 
L 210.194215 66.449455 
L 211.523244 66.449455 
L 211.635331 48.645818 
L 211.667355 48.645818 
L 211.779442 30.842182 
L 214.533574 30.842182 
L 214.549587 66.449455 
L 214.645661 48.645818 
L 214.693698 48.645818 
L 214.805785 66.449455 
L 216.134814 66.449455 
L 216.246901 48.645818 
L 216.278926 48.645818 
L 216.391012 30.842182 
L 219.145145 30.842182 
L 219.161157 66.449455 
L 219.257231 48.645818 
L 219.305269 48.645818 
L 219.417355 66.449455 
L 220.746384 66.449455 
L 220.858471 48.645818 
L 220.890496 48.645818 
L 221.002583 30.842182 
L 223.756715 30.842182 
L 223.772727 66.449455 
L 223.868802 48.645818 
L 223.916839 48.645818 
L 224.028926 66.449455 
L 225.357955 66.449455 
L 225.470041 48.645818 
L 225.502066 48.645818 
L 225.614153 30.842182 
L 228.368285 30.842182 
L 228.496384 48.645818 
L 228.528409 48.645818 
L 228.640496 66.449455 
L 229.969525 66.449455 
L 230.081612 48.645818 
L 230.113636 48.645818 
L 230.225723 30.842182 
L 231.81095 30.842182 
L 231.923037 13.038545 
L 232.979855 13.038545 
L 232.995868 66.449455 
L 233.091942 39.744 
L 233.139979 39.744 
L 233.252066 66.449455 
L 234.581095 66.449455 
L 234.693182 39.744 
L 234.725207 39.744 
L 234.837293 13.038545 
L 237.591426 13.038545 
L 237.607438 66.449455 
L 237.703512 39.744 
L 237.75155 39.744 
L 237.863636 66.449455 
L 239.192665 66.449455 
L 239.304752 39.744 
L 239.336777 39.744 
L 239.448864 13.038545 
L 242.202996 13.038545 
L 242.331095 39.744 
L 242.36312 39.744 
L 242.475207 66.449455 
L 243.804236 66.449455 
L 243.916322 39.744 
L 243.948347 39.744 
L 244.060434 13.038545 
L 246.814566 13.038545 
L 246.830579 66.449455 
L 246.926653 39.744 
L 246.97469 39.744 
L 247.086777 66.449455 
L 248.415806 66.449455 
L 248.527893 39.744 
L 248.559917 39.744 
L 248.672004 13.038545 
L 251.426136 13.038545 
L 251.442149 66.449455 
L 251.538223 39.744 
L 251.58626 39.744 
L 251.698347 66.449455 
L 253.027376 66.449455 
L 253.139463 39.744 
L 253.171488 39.744 
L 253.283574 13.038545 
L 256.021694 13.038545 
L 256.053719 66.449455 
L 256.133781 39.744 
L 256.197831 39.744 
L 256.309917 66.449455 
L 257.638946 66.449455 
L 257.751033 39.744 
L 257.783058 39.744 
L 257.895145 13.038545 
L 260.649277 13.038545 
L 260.665289 66.449455 
L 260.761364 39.744 
L 260.809401 39.744 
L 260.921488 66.449455 
L 262.250517 66.449455 
L 262.362603 39.744 
L 262.394628 39.744 
L 262.506715 13.038545 
L 265.260847 13.038545 
L 265.27686 66.449455 
L 265.372934 39.744 
L 265.420971 39.744 
L 265.533058 66.449455 
L 266.862087 66.449455 
L 266.974174 39.744 
L 267.006198 39.744 
L 267.118285 13.038545 
L 269.872417 13.038545 
L 269.88843 66.449455 
L 269.984504 39.744 
L 270.032541 39.744 
L 270.144628 66.449455 
L 271.473657 66.449455 
L 271.585744 39.744 
L 271.617769 39.744 
L 271.729855 13.038545 
L 274.483988 13.038545 
L 274.5 66.449455 
L 274.596074 39.744 
L 274.644112 39.744 
L 274.756198 66.449455 
L 276.085227 66.449455 
L 276.197314 39.744 
L 276.229339 39.744 
L 276.341426 13.038545 
L 279.095558 13.038545 
L 279.11157 66.449455 
L 279.207645 39.744 
L 279.255682 39.744 
L 279.367769 66.449455 
L 280.696798 66.449455 
L 280.808884 39.744 
L 280.840909 39.744 
L 280.952996 13.038545 
L 283.707128 13.038545 
L 283.72314 66.449455 
L 283.819215 39.744 
L 283.867252 39.744 
L 283.979339 66.449455 
L 285.500517 66.449455 
L 285.612603 39.744 
L 285.644628 39.744 
L 285.756715 13.038545 
L 288.510847 13.038545 
L 288.52686 66.449455 
L 288.622934 39.744 
L 288.670971 39.744 
L 288.783058 66.449455 
L 290.112087 66.449455 
L 290.224174 39.744 
L 290.256198 39.744 
L 290.368285 13.038545 
L 293.122417 13.038545 
L 293.13843 66.449455 
L 293.234504 39.744 
L 293.282541 39.744 
L 293.394628 66.449455 
L 294.723657 66.449455 
L 294.835744 39.744 
L 294.867769 39.744 
L 294.979855 13.038545 
L 297.733988 13.038545 
L 297.75 66.449455 
L 297.846074 39.744 
L 297.894112 39.744 
L 298.006198 66.449455 
L 299.335227 66.449455 
L 299.447314 39.744 
L 299.479339 39.744 
L 299.591426 13.038545 
L 302.345558 13.038545 
L 302.36157 66.449455 
L 302.457645 39.744 
L 302.505682 39.744 
L 302.617769 66.449455 
L 303.946798 66.449455 
L 304.058884 39.744 
L 304.090909 39.744 
L 304.202996 13.038545 
L 306.957128 13.038545 
L 306.97314 66.449455 
L 307.069215 39.744 
L 307.117252 39.744 
L 307.229339 66.449455 
L 308.558368 66.449455 
L 308.670455 39.744 
L 308.702479 39.744 
L 308.814566 13.038545 
L 311.568698 13.038545 
L 311.584711 66.449455 
L 311.680785 39.744 
L 311.728822 39.744 
L 311.840909 66.449455 
L 313.169938 66.449455 
L 313.282025 39.744 
L 313.31405 39.744 
L 313.426136 13.038545 
L 316.180269 13.038545 
L 316.196281 66.449455 
L 316.292355 39.744 
L 316.340393 39.744 
L 316.452479 66.449455 
L 317.781508 66.449455 
L 317.893595 39.744 
L 317.92562 39.744 
L 318.037707 13.038545 
L 320.791839 13.038545 
L 320.807851 66.449455 
L 320.903926 39.744 
L 320.951963 39.744 
L 321.06405 66.449455 
L 322.393079 66.449455 
L 322.505165 39.744 
L 322.53719 39.744 
L 322.649277 13.038545 
L 325.403409 13.038545 
L 325.419421 66.449455 
L 325.515496 39.744 
L 325.563533 39.744 
L 325.67562 66.449455 
L 327.004649 66.449455 
L 327.116736 39.744 
L 327.14876 39.744 
L 327.260847 13.038545 
L 329.822831 13.038545 
L 329.838843 66.449455 
L 329.934917 39.744 
L 329.982955 39.744 
L 330.095041 66.449455 
L 331.392045 66.449455 
L 331.536157 39.744 
L 331.568182 39.744 
L 331.680269 13.038545 
L 331.920455 13.038545 
L 331.968492 66.449455 
L 332.016529 13.038545 
L 334.434401 13.038545 
L 334.450413 66.449455 
L 334.546488 39.744 
L 334.578512 39.744 
L 334.706612 66.449455 
L 336.03564 66.449455 
L 336.147727 39.744 
L 336.179752 39.744 
L 336.291839 13.038545 
L 339.045971 13.038545 
L 339.061983 66.449455 
L 339.158058 39.744 
L 339.206095 39.744 
L 339.318182 66.449455 
L 340.647211 66.449455 
L 340.759298 39.744 
L 340.791322 39.744 
L 340.903409 13.038545 
L 343.657541 13.038545 
L 343.673554 66.449455 
L 343.769628 39.744 
L 343.817665 39.744 
L 343.929752 66.449455 
L 345.258781 66.449455 
L 345.370868 39.744 
L 345.402893 39.744 
L 345.514979 13.038545 
L 348.269112 13.038545 
L 348.285124 66.449455 
L 348.381198 39.744 
L 348.413223 39.744 
L 348.541322 66.449455 
L 349.870351 66.449455 
L 349.982438 39.744 
L 350.014463 39.744 
L 350.12655 13.038545 
L 352.880682 13.038545 
L 352.896694 66.449455 
L 352.992769 39.744 
L 353.040806 39.744 
L 353.152893 66.449455 
L 354.481921 66.449455 
L 354.594008 39.744 
L 354.626033 39.744 
L 354.73812 13.038545 
L 357.492252 13.038545 
L 357.508264 66.449455 
L 357.604339 39.744 
L 357.652376 39.744 
L 357.764463 66.449455 
L 359.093492 66.449455 
L 359.205579 39.744 
L 359.237603 39.744 
L 359.34969 13.038545 
L 362.103822 13.038545 
L 362.119835 66.449455 
L 362.215909 39.744 
L 362.263946 39.744 
L 362.376033 66.449455 
L 363.705062 66.449455 
L 363.817149 39.744 
L 363.849174 39.744 
L 363.96126 13.038545 
L 366.715393 13.038545 
L 366.731405 66.449455 
L 366.827479 39.744 
L 366.875517 39.744 
L 366.987603 66.449455 
L 368.316632 66.449455 
L 368.428719 39.744 
L 368.460744 39.744 
L 368.572831 13.038545 
L 371.326963 13.038545 
L 371.342975 66.449455 
L 371.43905 39.744 
L 371.487087 39.744 
L 371.599174 66.449455 
L 372.928202 66.449455 
L 373.040289 39.744 
L 373.072314 39.744 
L 373.184401 13.038545 
L 375.938533 13.038545 
L 375.954545 66.449455 
L 376.05062 39.744 
L 376.098657 39.744 
L 376.210744 66.449455 
L 377.52376 66.449455 
L 377.65186 39.744 
L 377.683884 39.744 
L 377.811983 13.038545 
L 380.550103 13.038545 
L 380.566116 66.449455 
L 380.66219 39.744 
L 380.710227 39.744 
L 380.822314 66.449455 
L 382.151343 66.449455 
L 382.26343 39.744 
L 382.295455 39.744 
L 382.407541 13.038545 
L 385.161674 13.038545 
L 385.177686 66.449455 
L 385.27376 39.744 
L 385.321798 39.744 
L 385.433884 66.449455 
L 386.762913 66.449455 
L 386.875 39.744 
L 386.907025 39.744 
L 387.019112 13.038545 
L 389.773244 13.038545 
L 389.789256 66.449455 
L 389.885331 39.744 
L 389.933368 39.744 
L 390.045455 66.449455 
L 391.374483 66.449455 
L 391.48657 39.744 
L 391.518595 39.744 
L 391.630682 13.038545 
L 394.384814 13.038545 
L 394.400826 66.449455 
L 394.496901 39.744 
L 394.544938 39.744 
L 394.657025 66.449455 
L 395.986054 66.449455 
L 396.09814 39.744 
L 396.130165 39.744 
L 396.242252 13.038545 
L 398.996384 13.038545 
L 399.012397 66.449455 
L 399.108471 39.744 
L 399.156508 39.744 
L 399.268595 66.449455 
L 400.597624 66.449455 
L 400.709711 39.744 
L 400.741736 39.744 
L 400.853822 13.038545 
L 403.607955 13.038545 
L 403.623967 66.449455 
L 403.720041 39.744 
L 403.768079 39.744 
L 403.880165 66.449455 
L 405.209194 66.449455 
L 405.321281 39.744 
L 405.353306 39.744 
L 405.465393 13.038545 
L 408.219525 13.038545 
L 408.235537 66.449455 
L 408.331612 39.744 
L 408.379649 39.744 
L 408.491736 66.449455 
L 409.820764 66.449455 
L 409.932851 39.744 
L 409.964876 39.744 
L 410.076963 13.038545 
L 412.831095 13.038545 
L 412.847107 66.449455 
L 412.943182 39.744 
L 412.991219 39.744 
L 413.103306 66.449455 
L 414.432335 66.449455 
L 414.544421 39.744 
L 414.576446 39.744 
L 414.688533 13.038545 
L 417.442665 13.038545 
L 417.458678 66.449455 
L 417.554752 39.744 
L 417.602789 39.744 
L 417.714876 66.449455 
L 419.043905 66.449455 
L 419.155992 39.744 
L 419.188017 39.744 
L 419.300103 13.038545 
L 422.054236 13.038545 
L 422.070248 66.449455 
L 422.166322 39.744 
L 422.21436 39.744 
L 422.326446 66.449455 
L 423.655475 66.449455 
L 423.767562 39.744 
L 423.799587 39.744 
L 423.911674 13.038545 
L 426.665806 13.038545 
L 426.681818 66.449455 
L 426.777893 39.744 
L 426.82593 39.744 
L 426.938017 66.449455 
L 428.267045 66.449455 
L 428.379132 39.744 
L 428.411157 39.744 
L 428.523244 13.038545 
L 431.277376 13.038545 
L 431.293388 66.449455 
L 431.389463 39.744 
L 431.4375 39.744 
L 431.549587 66.449455 
L 432.878616 66.449455 
L 432.990702 39.744 
L 433.022727 39.744 
L 433.134814 13.038545 
L 435.888946 13.038545 
L 435.904959 66.449455 
L 436.001033 39.744 
L 436.04907 39.744 
L 436.161157 66.449455 
L 437.490186 66.449455 
L 437.602273 39.744 
L 437.634298 39.744 
L 437.746384 13.038545 
L 440.500517 13.038545 
L 440.516529 66.449455 
L 440.612603 39.744 
L 440.66064 39.744 
L 440.772727 66.449455 
L 442.101756 66.449455 
L 442.213843 39.744 
L 442.245868 39.744 
L 442.357955 13.038545 
L 445.112087 13.038545 
L 445.128099 66.449455 
L 445.224174 39.744 
L 445.272211 39.744 
L 445.384298 66.449455 
L 446.713326 66.449455 
L 446.825413 39.744 
L 446.857438 39.744 
L 446.969525 13.038545 
L 449.723657 13.038545 
L 449.739669 66.449455 
L 449.835744 39.744 
L 449.883781 39.744 
L 450.027893 66.449455 
L 451.324897 66.449455 
L 451.436983 39.744 
L 451.469008 39.744 
L 451.581095 13.038545 
L 454.335227 13.038545 
L 454.35124 66.449455 
L 454.447314 39.744 
L 454.495351 39.744 
L 454.607438 66.449455 
L 455.936467 66.449455 
L 456.048554 39.744 
L 456.080579 39.744 
L 456.192665 13.038545 
L 457.265496 13.038545 
L 457.377583 66.44352 
L 457.489669 13.038545 
L 457.681818 13.038545 
L 457.793905 30.842182 
L 458.946798 30.842182 
L 458.96281 66.449455 
L 459.058884 48.645818 
L 459.106921 48.645818 
L 459.219008 66.449455 
L 460.548037 66.449455 
L 460.660124 48.645818 
L 460.692149 48.645818 
L 460.804236 30.842182 
L 463.558368 30.842182 
L 463.57438 66.449455 
L 463.670455 48.645818 
L 463.718492 48.645818 
L 463.830579 66.449455 
L 465.159607 66.449455 
L 465.271694 48.645818 
L 465.303719 48.645818 
L 465.415806 30.842182 
L 468.169938 30.842182 
L 468.18595 66.449455 
L 468.282025 48.645818 
L 468.330062 48.645818 
L 468.442149 66.449455 
L 469.771178 66.449455 
L 469.883264 48.645818 
L 469.915289 48.645818 
L 470.027376 30.842182 
L 472.781508 30.842182 
L 472.797521 66.449455 
L 472.893595 48.645818 
L 472.941632 48.645818 
L 473.053719 66.449455 
L 474.382748 66.449455 
L 474.494835 48.645818 
L 474.52686 48.645818 
L 474.638946 30.842182 
L 477.393079 30.842182 
L 477.409091 66.449455 
L 477.505165 48.645818 
L 477.553202 48.645818 
L 477.665289 66.449455 
L 478.994318 66.449455 
L 479.106405 48.645818 
L 479.13843 48.645818 
L 479.250517 30.842182 
L 482.004649 30.842182 
L 482.020661 66.449455 
L 482.116736 48.645818 
L 482.164773 48.645818 
L 482.27686 66.449455 
L 483.605888 66.449455 
L 483.717975 48.645818 
L 483.75 48.645818 
L 483.862087 30.842182 
L 486.616219 30.842182 
L 486.632231 66.449455 
L 486.728306 48.645818 
L 486.776343 48.645818 
L 486.88843 66.449455 
L 488.217459 66.449455 
L 488.329545 48.645818 
L 488.36157 48.645818 
L 488.473657 30.842182 
L 491.227789 30.842182 
L 491.243802 66.449455 
L 491.339876 48.645818 
L 491.387913 48.645818 
L 491.5 66.449455 
L 492.829029 66.449455 
L 492.941116 48.645818 
L 492.97314 48.645818 
L 493.085227 30.842182 
L 495.83936 30.842182 
L 495.855372 66.449455 
L 495.951446 48.645818 
L 495.999483 48.645818 
L 496.11157 66.449455 
L 497.440599 66.449455 
L 497.552686 48.645818 
L 497.584711 48.645818 
L 497.696798 30.842182 
L 500.45093 30.842182 
L 500.466942 66.449455 
L 500.563017 48.645818 
L 500.611054 48.645818 
L 500.72314 66.449455 
L 502.052169 66.449455 
L 502.164256 48.645818 
L 502.196281 48.645818 
L 502.308368 30.842182 
L 505.0625 30.842182 
L 505.078512 66.449455 
L 505.174587 48.645818 
L 505.222624 48.645818 
L 505.334711 66.449455 
L 506.66374 66.449455 
L 506.775826 48.645818 
L 506.807851 48.645818 
L 506.919938 30.842182 
L 509.67407 30.842182 
L 509.690083 66.449455 
L 509.786157 48.645818 
L 509.834194 48.645818 
L 509.946281 66.449455 
L 511.27531 66.449455 
L 511.387397 48.645818 
L 511.419421 48.645818 
L 511.531508 30.842182 
L 514.28564 30.842182 
L 514.301653 66.449455 
L 514.397727 48.645818 
L 514.445764 48.645818 
L 514.557851 66.449455 
L 515.88688 66.449455 
L 515.998967 48.645818 
L 516.030992 48.645818 
L 516.143079 30.842182 
L 518.897211 30.842182 
L 518.913223 66.449455 
L 519.009298 48.645818 
L 519.057335 48.645818 
L 519.169421 66.449455 
L 520.49845 66.449455 
L 520.610537 48.645818 
L 520.642562 48.645818 
L 520.754649 30.842182 
L 523.508781 30.842182 
L 523.524793 66.449455 
L 523.620868 48.645818 
L 523.668905 48.645818 
L 523.780992 66.449455 
L 525.110021 66.449455 
L 525.222107 48.645818 
L 525.254132 48.645818 
L 525.366219 30.842182 
L 528.120351 30.842182 
L 528.136364 66.449455 
L 528.232438 48.645818 
L 528.280475 48.645818 
L 528.392562 66.449455 
L 529.721591 66.449455 
L 529.833678 48.645818 
L 529.865702 48.645818 
L 529.977789 30.842182 
L 532.731921 30.842182 
L 532.747934 66.449455 
L 532.844008 48.645818 
L 532.892045 48.645818 
L 533.004132 66.449455 
L 534.333161 66.449455 
L 534.445248 48.645818 
L 534.477273 48.645818 
L 534.58936 30.842182 
L 541.955062 30.842182 
L 541.971074 66.449455 
L 542.067149 48.645818 
L 542.115186 48.645818 
L 542.227273 66.449455 
L 543.556302 66.449455 
L 543.668388 48.645818 
L 543.700413 48.645818 
L 543.8125 30.842182 
L 546.566632 30.842182 
L 546.582645 66.449455 
L 546.678719 48.645818 
L 546.726756 48.645818 
L 546.838843 66.449455 
L 548.167872 66.449455 
L 548.279959 48.645818 
L 548.311983 48.645818 
L 548.42407 30.842182 
L 551.178202 30.842182 
L 551.194215 66.449455 
L 551.290289 48.645818 
L 551.338326 48.645818 
L 551.450413 66.449455 
L 552.779442 66.449455 
L 552.891529 48.645818 
L 552.923554 48.645818 
L 553.03564 30.842182 
L 555.789773 30.842182 
L 555.805785 66.449455 
L 555.90186 48.645818 
L 555.949897 48.645818 
L 556.061983 66.449455 
L 557.391012 66.449455 
L 557.503099 48.645818 
L 557.535124 48.645818 
L 557.647211 30.842182 
L 565.012913 30.842182 
L 565.028926 66.449455 
L 565.125 48.645818 
L 565.173037 48.645818 
L 565.285124 66.449455 
L 566.614153 66.449455 
L 566.72624 48.645818 
L 566.758264 48.645818 
L 566.870351 30.842182 
L 569.608471 30.842182 
L 569.720558 66.44352 
L 571.433884 66.44352 
L 571.545971 30.842182 
L 574.236054 30.842182 
L 574.252066 66.449455 
L 574.34814 48.645818 
L 574.396178 48.645818 
L 574.508264 66.449455 
L 575.837293 66.449455 
L 575.94938 48.645818 
L 575.981405 48.645818 
L 576.093492 30.842182 
L 578.847624 30.842182 
L 578.863636 66.449455 
L 578.959711 48.645818 
L 579.007748 48.645818 
L 579.119835 66.449455 
L 580.448864 66.449455 
L 580.56095 48.645818 
L 580.592975 48.645818 
L 580.705062 30.842182 
L 583.459194 30.842182 
L 583.475207 66.449455 
L 583.571281 48.645818 
L 583.619318 48.645818 
L 583.731405 66.449455 
L 585.060434 66.449455 
L 585.172521 48.645818 
L 585.204545 48.645818 
L 585.316632 30.842182 
L 588.070764 30.842182 
L 588.086777 66.449455 
L 588.182851 48.645818 
L 588.230888 48.645818 
L 588.342975 66.449455 
L 589.672004 66.449455 
L 589.784091 48.645818 
L 589.816116 48.645818 
L 589.928202 30.842182 
L 592.682335 30.842182 
L 592.698347 66.449455 
L 592.794421 48.645818 
L 592.842459 48.645818 
L 592.954545 66.449455 
L 594.283574 66.449455 
L 594.395661 48.645818 
L 594.427686 48.645818 
L 594.539773 30.842182 
L 597.293905 30.842182 
L 597.309917 66.449455 
L 597.405992 48.645818 
L 597.454029 48.645818 
L 597.566116 66.449455 
L 598.895145 66.449455 
L 599.007231 48.645818 
L 599.039256 48.645818 
L 599.151343 30.842182 
L 601.905475 30.842182 
L 601.921488 66.449455 
L 602.017562 48.645818 
L 602.065599 48.645818 
L 602.177686 66.449455 
L 603.506715 66.449455 
L 603.618802 48.645818 
L 603.650826 48.645818 
L 603.762913 30.842182 
L 606.517045 30.842182 
L 606.709194 66.449455 
L 608.118285 66.449455 
L 608.230372 48.645818 
L 608.262397 48.645818 
L 608.374483 30.842182 
L 611.128616 30.842182 
L 611.144628 66.449455 
L 611.240702 48.645818 
L 611.28874 48.645818 
L 611.400826 66.449455 
L 612.729855 66.449455 
L 612.841942 48.645818 
L 612.873967 48.645818 
L 612.986054 30.842182 
L 615.740186 30.842182 
L 615.756198 66.449455 
L 615.852273 48.645818 
L 615.90031 48.645818 
L 616.012397 66.449455 
L 617.341426 66.449455 
L 617.453512 48.645818 
L 617.485537 48.645818 
L 617.597624 30.842182 
L 620.351756 30.842182 
L 620.367769 66.449455 
L 620.463843 48.645818 
L 620.51188 48.645818 
L 620.623967 66.449455 
L 621.904959 66.449455 
L 622.289256 30.842182 
L 624.963326 30.842182 
L 624.979339 66.449455 
L 625.075413 48.645818 
L 625.12345 48.645818 
L 625.235537 66.449455 
L 626.564566 66.449455 
L 626.676653 48.645818 
L 626.708678 48.645818 
L 626.820764 30.842182 
L 629.574897 30.842182 
L 629.590909 66.449455 
L 629.686983 48.645818 
L 629.735021 48.645818 
L 629.847107 66.449455 
L 631.176136 66.449455 
L 631.288223 48.645818 
L 631.320248 48.645818 
L 631.432335 30.842182 
L 634.186467 30.842182 
L 634.202479 66.449455 
L 634.298554 48.645818 
L 634.346591 48.645818 
L 634.458678 66.449455 
L 635.787707 66.449455 
L 635.899793 48.645818 
L 635.931818 48.645818 
L 636.043905 30.842182 
L 638.798037 30.842182 
L 638.81405 66.449455 
L 638.910124 48.645818 
L 638.958161 48.645818 
L 639.070248 66.449455 
L 640.399277 66.449455 
L 640.511364 48.645818 
L 640.543388 48.645818 
L 640.655475 30.842182 
L 643.409607 30.842182 
L 643.42562 66.449455 
L 643.521694 48.645818 
L 643.569731 48.645818 
L 643.681818 66.449455 
L 645.010847 66.449455 
L 645.122934 48.645818 
L 645.154959 48.645818 
L 645.267045 30.842182 
L 648.021178 30.842182 
L 648.03719 66.449455 
L 648.133264 48.645818 
L 648.181302 48.645818 
L 648.293388 66.449455 
L 649.622417 66.449455 
L 649.734504 48.645818 
L 649.766529 48.645818 
L 649.878616 30.842182 
L 652.632748 30.842182 
L 652.64876 66.449455 
L 652.744835 48.645818 
L 652.792872 48.645818 
L 652.904959 66.449455 
L 654.233988 66.449455 
L 654.346074 48.645818 
L 654.378099 48.645818 
L 654.490186 30.842182 
L 657.244318 30.842182 
L 657.260331 66.449455 
L 657.356405 48.645818 
L 657.404442 48.645818 
L 657.516529 66.449455 
L 658.845558 66.449455 
L 658.957645 48.645818 
L 658.989669 48.645818 
L 659.101756 30.842182 
L 661.855888 30.842182 
L 661.871901 66.449455 
L 661.967975 48.645818 
L 662.016012 48.645818 
L 662.128099 66.449455 
L 663.457128 66.449455 
L 663.569215 48.645818 
L 663.60124 48.645818 
L 663.713326 30.842182 
L 666.467459 30.842182 
L 666.483471 66.449455 
L 666.579545 48.645818 
L 666.627583 48.645818 
L 666.739669 66.449455 
L 668.068698 66.449455 
L 668.180785 48.645818 
L 668.21281 48.645818 
L 668.324897 30.842182 
L 671.079029 30.842182 
L 671.095041 66.449455 
L 671.191116 48.645818 
L 671.239153 48.645818 
L 671.35124 66.449455 
L 672.680269 66.449455 
L 672.792355 48.645818 
L 672.82438 48.645818 
L 672.936467 30.842182 
L 675.690599 30.842182 
L 675.706612 66.449455 
L 675.802686 48.645818 
L 675.850723 48.645818 
L 675.96281 66.449455 
L 677.291839 66.449455 
L 677.403926 48.645818 
L 677.43595 48.645818 
L 677.548037 30.842182 
L 680.302169 30.842182 
L 680.318182 66.449455 
L 680.414256 48.645818 
L 680.462293 48.645818 
L 680.57438 66.449455 
L 681.903409 66.449455 
L 682.015496 48.645818 
L 682.047521 48.645818 
L 682.159607 30.842182 
L 682.816116 30.842182 
L 682.928202 66.44352 
L 683.344525 66.44352 
L 683.456612 30.842182 
L 683.680785 30.842182 
L 683.792872 66.44352 
L 686.979339 66.44352 
L 687.091426 30.842182 
L 689.52531 30.842182 
L 689.541322 66.449455 
L 689.637397 48.645818 
L 689.685434 48.645818 
L 689.797521 66.449455 
L 691.12655 66.449455 
L 691.238636 48.645818 
L 691.270661 48.645818 
L 691.382748 30.842182 
L 694.13688 30.842182 
L 694.152893 66.449455 
L 694.248967 48.645818 
L 694.297004 48.645818 
L 694.409091 66.449455 
L 695.73812 66.449455 
L 695.850207 48.645818 
L 695.882231 48.645818 
L 695.994318 30.842182 
L 698.74845 30.842182 
L 698.764463 66.449455 
L 698.860537 48.645818 
L 698.908574 48.645818 
L 699.020661 66.449455 
L 700.34969 66.449455 
L 700.461777 48.645818 
L 700.493802 48.645818 
L 700.605888 30.842182 
L 700.830062 30.842182 
L 700.942149 66.44352 
L 701.166322 66.44352 
L 701.278409 30.842182 
L 703.360021 30.842182 
L 703.376033 66.449455 
L 703.472107 48.645818 
L 703.520145 48.645818 
L 703.632231 66.449455 
L 704.96126 66.449455 
L 705.073347 48.645818 
L 705.105372 48.645818 
L 705.217459 30.842182 
L 707.971591 30.842182 
L 707.987603 66.449455 
L 708.083678 48.645818 
L 708.131715 48.645818 
L 708.243802 66.449455 
L 709.572831 66.449455 
L 709.684917 48.645818 
L 709.716942 48.645818 
L 709.829029 30.842182 
L 712.583161 30.842182 
L 712.599174 66.449455 
L 712.695248 48.645818 
L 712.743285 48.645818 
L 712.855372 66.449455 
L 714.184401 66.449455 
L 714.296488 48.645818 
L 714.328512 48.645818 
L 714.440599 30.842182 
L 715.801653 30.842182 
L 715.91374 13.038545 
L 717.194731 13.038545 
L 717.210744 66.449455 
L 717.306818 39.744 
L 717.354855 39.744 
L 717.466942 66.449455 
L 718.795971 66.449455 
L 718.908058 39.744 
L 718.940083 39.744 
L 719.052169 13.038545 
L 721.806302 13.038545 
L 721.822314 66.449455 
L 721.918388 39.744 
L 721.950413 39.744 
L 722.110537 66.449455 
L 723.407541 66.449455 
L 723.519628 39.744 
L 723.551653 39.744 
L 723.66374 13.038545 
L 726.417872 13.038545 
L 726.433884 66.449455 
L 726.529959 39.744 
L 726.577996 39.744 
L 726.690083 66.449455 
L 728.019112 66.449455 
L 728.131198 39.744 
L 728.163223 39.744 
L 728.27531 13.038545 
L 728.323347 13.038545 
L 728.451446 66.44352 
L 728.867769 66.44352 
L 728.979855 13.038545 
L 729.508264 13.038545 
L 729.620351 66.44352 
L 737.850723 66.44352 
L 737.96281 13.038545 
L 740.252583 13.038545 
L 740.268595 66.449455 
L 740.364669 39.744 
L 740.412707 39.744 
L 740.524793 66.449455 
L 741.853822 66.449455 
L 741.965909 39.744 
L 741.997934 39.744 
L 742.110021 13.038545 
L 744.864153 13.038545 
L 744.880165 66.449455 
L 744.97624 39.744 
L 745.024277 39.744 
L 745.136364 66.449455 
L 746.465393 66.449455 
L 746.577479 39.744 
L 746.609504 39.744 
L 746.721591 13.038545 
L 749.475723 13.038545 
L 749.491736 66.449455 
L 749.58781 39.744 
L 749.635847 39.744 
L 749.747934 66.449455 
L 751.076963 66.449455 
L 751.18905 39.744 
L 751.221074 39.744 
L 751.333161 13.038545 
L 754.087293 13.038545 
L 754.103306 66.449455 
L 754.19938 39.744 
L 754.247417 39.744 
L 754.359504 66.449455 
L 755.688533 66.449455 
L 755.80062 39.744 
L 755.832645 39.744 
L 755.944731 13.038545 
L 758.698864 13.038545 
L 758.714876 66.449455 
L 758.81095 39.744 
L 758.858988 39.744 
L 758.971074 66.449455 
L 760.300103 66.449455 
L 760.41219 39.744 
L 760.444215 39.744 
L 760.556302 13.038545 
L 763.310434 13.038545 
L 763.326446 66.449455 
L 763.422521 39.744 
L 763.470558 39.744 
L 763.582645 66.449455 
L 764.911674 66.449455 
L 765.02376 39.744 
L 765.055785 39.744 
L 765.167872 13.038545 
L 767.922004 13.038545 
L 767.938017 66.449455 
L 768.034091 39.744 
L 768.082128 39.744 
L 768.194215 66.449455 
L 769.523244 66.449455 
L 769.635331 39.744 
L 769.667355 39.744 
L 769.779442 13.038545 
L 772.533574 13.038545 
L 772.549587 66.449455 
L 772.645661 39.744 
L 772.693698 39.744 
L 772.805785 66.449455 
L 774.134814 66.449455 
L 774.246901 39.744 
L 774.278926 39.744 
L 774.391012 13.038545 
L 777.145145 13.038545 
L 777.161157 66.449455 
L 777.257231 39.744 
L 777.305269 39.744 
L 777.417355 66.449455 
L 778.746384 66.449455 
L 778.858471 39.744 
L 778.890496 39.744 
L 779.002583 13.038545 
L 781.756715 13.038545 
L 781.772727 66.449455 
L 781.868802 39.744 
L 781.916839 39.744 
L 782.028926 66.449455 
L 783.357955 66.449455 
L 783.470041 39.744 
L 783.502066 39.744 
L 783.614153 13.038545 
L 786.368285 13.038545 
L 786.384298 66.449455 
L 786.480372 39.744 
L 786.528409 39.744 
L 786.640496 66.449455 
L 787.969525 66.449455 
L 788.081612 39.744 
L 788.113636 39.744 
L 788.225723 13.038545 
L 790.979855 13.038545 
L 790.995868 66.449455 
L 791.091942 39.744 
L 791.139979 39.744 
L 791.252066 66.449455 
L 792.581095 66.449455 
L 792.693182 39.744 
L 792.725207 39.744 
L 792.837293 13.038545 
L 795.591426 13.038545 
L 795.607438 66.449455 
L 795.703512 39.744 
L 795.75155 39.744 
L 795.863636 66.449455 
L 797.192665 66.449455 
L 797.304752 39.744 
L 797.336777 39.744 
L 797.448864 13.038545 
L 800.202996 13.038545 
L 800.219008 66.449455 
L 800.315083 39.744 
L 800.36312 39.744 
L 800.475207 66.449455 
L 801.804236 66.449455 
L 801.916322 39.744 
L 801.948347 39.744 
L 802.060434 13.038545 
L 804.814566 13.038545 
L 804.830579 66.449455 
L 804.926653 39.744 
L 804.97469 39.744 
L 805.086777 66.449455 
L 806.415806 66.449455 
L 806.527893 39.744 
L 806.559917 39.744 
L 806.672004 13.038545 
L 809.426136 13.038545 
L 809.442149 66.449455 
L 809.538223 39.744 
L 809.58626 39.744 
L 809.698347 66.449455 
L 811.027376 66.449455 
L 811.139463 39.744 
L 811.171488 39.744 
L 811.283574 13.038545 
L 814.037707 13.038545 
L 814.053719 66.449455 
L 814.149793 39.744 
L 814.197831 39.744 
L 814.309917 66.449455 
L 815.638946 66.449455 
L 815.751033 39.744 
L 815.783058 39.744 
L 815.895145 13.038545 
L 818.649277 13.038545 
L 818.665289 66.449455 
L 818.761364 39.744 
L 818.809401 39.744 
L 818.921488 66.449455 
L 820.250517 66.449455 
L 820.362603 39.744 
L 820.394628 39.744 
L 820.442665 13.038545 
L 820.458678 66.44352 
L 820.47469 66.44352 
L 820.81095 66.44352 
L 820.923037 13.038545 
L 823.260847 13.038545 
L 823.27686 66.449455 
L 823.372934 39.744 
L 823.420971 39.744 
L 823.533058 66.449455 
L 824.862087 66.449455 
L 824.974174 39.744 
L 825.006198 39.744 
L 825.118285 13.038545 
L 827.872417 13.038545 
L 827.88843 66.449455 
L 827.984504 39.744 
L 828.032541 39.744 
L 828.144628 66.449455 
L 829.473657 66.449455 
L 829.585744 39.744 
L 829.617769 39.744 
L 829.729855 13.038545 
L 832.483988 13.038545 
L 832.5 66.449455 
L 832.596074 39.744 
L 832.644112 39.744 
L 832.756198 66.449455 
L 834.085227 66.449455 
L 834.197314 39.744 
L 834.229339 39.744 
L 834.341426 13.038545 
L 837.095558 13.038545 
L 837.11157 66.449455 
L 837.207645 39.744 
L 837.255682 39.744 
L 837.367769 66.449455 
L 838.696798 66.449455 
L 838.808884 39.744 
L 838.840909 39.744 
L 838.952996 13.038545 
L 841.707128 13.038545 
L 841.72314 66.449455 
L 841.819215 39.744 
L 841.867252 39.744 
L 841.979339 66.449455 
L 843.308368 66.449455 
L 843.420455 39.744 
L 843.452479 39.744 
L 843.564566 13.038545 
L 846.318698 13.038545 
L 846.334711 66.449455 
L 846.430785 39.744 
L 846.478822 39.744 
L 846.590909 66.449455 
L 847.919938 66.449455 
L 848.032025 39.744 
L 848.06405 39.744 
L 848.176136 13.038545 
L 850.930269 13.038545 
L 850.946281 66.449455 
L 851.042355 39.744 
L 851.090393 39.744 
L 851.202479 66.449455 
L 852.531508 66.449455 
L 852.643595 39.744 
L 852.67562 39.744 
L 852.787707 13.038545 
L 855.541839 13.038545 
L 855.557851 66.449455 
L 855.653926 39.744 
L 855.701963 39.744 
L 855.81405 66.449455 
L 857.143079 66.449455 
L 857.255165 39.744 
L 857.28719 39.744 
L 857.399277 13.038545 
L 860.153409 13.038545 
L 860.169421 66.449455 
L 860.265496 39.744 
L 860.313533 39.744 
L 860.42562 66.449455 
L 861.754649 66.449455 
L 861.866736 39.744 
L 861.89876 39.744 
L 862.010847 13.038545 
L 864.764979 13.038545 
L 864.780992 66.449455 
L 864.877066 39.744 
L 864.925103 39.744 
L 865.03719 66.449455 
L 866.366219 66.449455 
L 866.478306 39.744 
L 866.510331 39.744 
L 866.622417 13.038545 
L 869.37655 13.038545 
L 869.392562 66.449455 
L 869.488636 39.744 
L 869.536674 39.744 
L 869.64876 66.449455 
L 870.977789 66.449455 
L 871.089876 39.744 
L 871.121901 39.744 
L 871.233988 13.038545 
L 873.98812 13.038545 
L 874.004132 66.449455 
L 874.100207 39.744 
L 874.148244 39.744 
L 874.260331 66.449455 
L 875.58936 66.449455 
L 875.701446 39.744 
L 875.733471 39.744 
L 875.845558 13.038545 
L 878.59969 13.038545 
L 878.615702 66.449455 
L 878.711777 39.744 
L 878.759814 39.744 
L 878.871901 66.449455 
L 880.20093 66.449455 
L 880.313017 39.744 
L 880.345041 39.744 
L 880.457128 13.038545 
L 880.793388 13.038545 
L 880.905475 30.842182 
L 883.21126 30.842182 
L 883.227273 66.449455 
L 883.323347 48.645818 
L 883.371384 48.645818 
L 883.483471 66.449455 
L 884.8125 66.449455 
L 884.924587 48.645818 
L 884.956612 48.645818 
L 885.068698 30.842182 
L 887.822831 30.842182 
L 887.838843 66.449455 
L 887.934917 48.645818 
L 887.982955 48.645818 
L 888.095041 66.449455 
L 889.42407 66.449455 
L 889.536157 48.645818 
L 889.568182 48.645818 
L 889.680269 30.842182 
L 892.434401 30.842182 
L 892.450413 66.449455 
L 892.546488 48.645818 
L 892.594525 48.645818 
L 892.706612 66.449455 
L 894.03564 66.449455 
L 894.147727 48.645818 
L 894.179752 48.645818 
L 894.291839 30.842182 
L 897.045971 30.842182 
L 897.061983 66.449455 
L 897.158058 48.645818 
L 897.206095 48.645818 
L 897.334194 66.449455 
L 898.647211 66.449455 
L 898.759298 48.645818 
L 898.791322 48.645818 
L 898.903409 30.842182 
L 901.657541 30.842182 
L 901.673554 66.449455 
L 901.769628 48.645818 
L 901.817665 48.645818 
L 901.929752 66.449455 
L 903.258781 66.449455 
L 903.370868 48.645818 
L 903.402893 48.645818 
L 903.514979 30.842182 
L 906.269112 30.842182 
L 906.285124 66.449455 
L 906.381198 48.645818 
L 906.429236 48.645818 
L 906.541322 66.449455 
L 907.870351 66.449455 
L 907.982438 48.645818 
L 908.014463 48.645818 
L 908.12655 30.842182 
L 908.558884 30.842182 
L 908.670971 66.44352 
L 908.959194 66.44352 
L 909.071281 30.842182 
L 910.880682 30.842182 
L 910.896694 66.449455 
L 910.992769 48.645818 
L 911.040806 48.645818 
L 911.152893 66.449455 
L 912.481921 66.449455 
L 912.594008 48.645818 
L 912.626033 48.645818 
L 912.73812 30.842182 
L 915.492252 30.842182 
L 915.508264 66.449455 
L 915.604339 48.645818 
L 915.652376 48.645818 
L 915.764463 66.449455 
L 917.093492 66.449455 
L 917.205579 48.645818 
L 917.237603 48.645818 
L 917.34969 30.842182 
L 920.103822 30.842182 
L 920.119835 66.449455 
L 920.215909 48.645818 
L 920.263946 48.645818 
L 920.376033 66.449455 
L 921.705062 66.449455 
L 921.817149 48.645818 
L 921.849174 48.645818 
L 921.96126 30.842182 
L 924.715393 30.842182 
L 924.731405 66.449455 
L 924.827479 48.645818 
L 924.875517 48.645818 
L 924.987603 66.449455 
L 926.316632 66.449455 
L 926.428719 48.645818 
L 926.460744 48.645818 
L 926.572831 30.842182 
L 929.326963 30.842182 
L 929.342975 66.449455 
L 929.43905 48.645818 
L 929.487087 48.645818 
L 929.599174 66.449455 
L 930.928202 66.449455 
L 931.040289 48.645818 
L 931.072314 48.645818 
L 931.184401 30.842182 
L 933.938533 30.842182 
L 933.954545 66.449455 
L 933.954545 66.449455 
" style="fill:none;stroke:#1f77b4;stroke-linecap:square;stroke-width:1.5;"/>
   </g>
   <g id="patch_3">
    <path d="M 135 69.12 
L 135 10.368 
" style="fill:none;stroke:#000000;stroke-linecap:square;stroke-linejoin:miter;stroke-width:0.8;"/>
   </g>
   <g id="patch_4">
    <path d="M 972 69.12 
L 972 10.368 
" style="fill:none;stroke:#000000;stroke-linecap:square;stroke-linejoin:miter;stroke-width:0.8;"/>
   </g>
   <g id="patch_5">
    <path d="M 135 69.12 
L 972 69.12 
" style="fill:none;stroke:#000000;stroke-linecap:square;stroke-linejoin:miter;stroke-width:0.8;"/>
   </g>
   <g id="patch_6">
    <path d="M 135 10.368 
L 972 10.368 
" style="fill:none;stroke:#000000;stroke-linecap:square;stroke-linejoin:miter;stroke-width:0.8;"/>
   </g>
   <g id="legend_1">
    <g id="patch_7">
     <path d="M 509.3875 48.583062 
L 597.6125 48.583062 
Q 599.6125 48.583062 599.6125 46.583062 
L 599.6125 32.904937 
Q 599.6125 30.904937 597.6125 30.904937 
L 509.3875 30.904937 
Q 507.3875 30.904937 507.3875 32.904937 
L 507.3875 46.583062 
Q 507.3875 48.583062 509.3875 48.583062 
z
" style="fill:#ffffff;opacity:0.8;stroke:#cccccc;stroke-linejoin:miter;"/>
    </g>
    <g id="line2d_10">
     <path d="M 511.3875 39.003375 
L 531.3875 39.003375 
" style="fill:none;stroke:#1f77b4;stroke-linecap:square;stroke-width:1.5;"/>
    </g>
    <g id="line2d_11"/>
    <g id="text_10">
     <!-- L1-2L BLUE -->
     <g transform="translate(539.3875 42.503375)scale(0.1 -0.1)">
      <defs>
       <path d="M 9.8125 72.90625 
L 19.671875 72.90625 
L 19.671875 8.296875 
L 55.171875 8.296875 
L 55.171875 0 
L 9.8125 0 
z
" id="DejaVuSans-76"/>
       <path id="DejaVuSans-32"/>
       <path d="M 19.671875 34.8125 
L 19.671875 8.109375 
L 35.5 8.109375 
Q 43.453125 8.109375 47.28125 11.40625 
Q 51.125 14.703125 51.125 21.484375 
Q 51.125 28.328125 47.28125 31.5625 
Q 43.453125 34.8125 35.5 34.8125 
z
M 19.671875 64.796875 
L 19.671875 42.828125 
L 34.28125 42.828125 
Q 41.5 42.828125 45.03125 45.53125 
Q 48.578125 48.25 48.578125 53.8125 
Q 48.578125 59.328125 45.03125 62.0625 
Q 41.5 64.796875 34.28125 64.796875 
z
M 9.8125 72.90625 
L 35.015625 72.90625 
Q 46.296875 72.90625 52.390625 68.21875 
Q 58.5 63.53125 58.5 54.890625 
Q 58.5 48.1875 55.375 44.234375 
Q 52.25 40.28125 46.1875 39.3125 
Q 53.46875 37.75 57.5 32.78125 
Q 61.53125 27.828125 61.53125 20.40625 
Q 61.53125 10.640625 54.890625 5.3125 
Q 48.25 0 35.984375 0 
L 9.8125 0 
z
" id="DejaVuSans-66"/>
       <path d="M 8.6875 72.90625 
L 18.609375 72.90625 
L 18.609375 28.609375 
Q 18.609375 16.890625 22.84375 11.734375 
Q 27.09375 6.59375 36.625 6.59375 
Q 46.09375 6.59375 50.34375 11.734375 
Q 54.59375 16.890625 54.59375 28.609375 
L 54.59375 72.90625 
L 64.5 72.90625 
L 64.5 27.390625 
Q 64.5 13.140625 57.4375 5.859375 
Q 50.390625 -1.421875 36.625 -1.421875 
Q 22.796875 -1.421875 15.734375 5.859375 
Q 8.6875 13.140625 8.6875 27.390625 
z
" id="DejaVuSans-85"/>
       <path d="M 9.8125 72.90625 
L 55.90625 72.90625 
L 55.90625 64.59375 
L 19.671875 64.59375 
L 19.671875 43.015625 
L 54.390625 43.015625 
L 54.390625 34.71875 
L 19.671875 34.71875 
L 19.671875 8.296875 
L 56.78125 8.296875 
L 56.78125 0 
L 9.8125 0 
z
" id="DejaVuSans-69"/>
      </defs>
      <use xlink:href="#DejaVuSans-76"/>
      <use x="55.712891" xlink:href="#DejaVuSans-49"/>
      <use x="119.335938" xlink:href="#DejaVuSans-45"/>
      <use x="155.419922" xlink:href="#DejaVuSans-50"/>
      <use x="219.042969" xlink:href="#DejaVuSans-76"/>
      <use x="274.755859" xlink:href="#DejaVuSans-32"/>
      <use x="306.542969" xlink:href="#DejaVuSans-66"/>
      <use x="375.146484" xlink:href="#DejaVuSans-76"/>
      <use x="425.859375" xlink:href="#DejaVuSans-85"/>
      <use x="499.052734" xlink:href="#DejaVuSans-69"/>
     </g>
    </g>
   </g>
  </g>
 </g>
 <defs>
  <clipPath id="p9597dc8ccc">
   <rect height="58.752" width="837" x="135" y="10.368"/>
  </clipPath>
 </defs>
</svg>
